<?xml version="1.0" encoding="iso-8859-1"?>
<!-- Generator: Adobe Illustrator 17.0.0, SVG Export Plug-In . SVG Version: 6.00 Build 0)  -->
<!DOCTYPE svg PUBLIC "-//W3C//DTD SVG 1.1//EN" "http://www.w3.org/Graphics/SVG/1.1/DTD/svg11.dtd">
<svg version="1.1" id="Capa_1" xmlns="http://www.w3.org/2000/svg" xmlns:xlink="http://www.w3.org/1999/xlink" x="0px" y="0px"
	 width="64px" height="64px" viewBox="0 0 64 64" style="enable-background:new 0 0 64 64;" xml:space="preserve">
<g>
	<ellipse cx="32.322" cy="14.762" rx="3.089" ry="2.896"/>
	<path d="M3.774,36.153l4.495,2.528c0.039,0.138,0.084,0.271,0.125,0.408l-1.935,2.799c-0.628,0.909-0.307,1.982,0.72,2.388
		c1.22,0.483,2.85,1.117,4.287,1.643c0.885,1.395,1.884,2.667,2.982,3.789c-1.821,2.628-3.268,5.412-3.524,8.763
		c-0.154,2.016,2.98,2.001,3.132,0c0.191-2.502,1.329-4.686,2.723-6.714c1.372,1.027,2.853,1.839,4.412,2.417v1.188
		c0,0.604,0.302,2.115,0.04,2.666c-0.862,1.814,1.838,3.405,2.705,1.581c0.456-0.959,0.444-1.903,0.395-2.944
		c-0.026-0.56-0.023-1.123-0.022-1.686c0.759,0.115,1.529,0.185,2.312,0.185c2.519,0,4.924-0.617,7.134-1.728
		c0.184,0.25,0.369,0.498,0.546,0.757c1.257,1.842,1.331,3.683,1.336,5.844c0.004,2.02,3.137,2.02,3.132,0
		c-0.005-2.142-0.019-4.309-1.041-6.24c-0.37-0.699-0.813-1.371-1.282-2.027c1.354-1.011,2.598-2.231,3.718-3.614
		c4.647,0.648,8.333,3.898,9.451,8.643c0.463,1.966,3.483,1.132,3.021-0.833c-1.273-5.409-5.374-9.339-10.509-10.62
		c2.38-3.983,3.827-8.913,3.96-14.268c0.053-0.039,0.106-0.073,0.16-0.115l12.174-9.645c0.565-0.448,0.957-0.942,1.197-1.451
		c-4.265,0.047-9.563,0.138-12.983,0.148c-0.163,0-0.304-0.032-0.427-0.086c-0.76-0.328-0.771-1.528-0.039-1.893
		c0.133-0.066,0.285-0.109,0.467-0.11c3.445-0.01,8.796-0.103,13.077-0.149c-0.284-0.708-0.894-1.352-1.829-1.831
		c-3.898-1.995-9.558-4.927-13.755-7.244c-1.346-2.101-3.529-3.309-7.065-3.309c-19.518,0-27.135,7.469-29.258,17.718l-2.017,0.278
		c-1.449,0.2-1.948,1.3-1.115,2.456l2.472,3.43c-0.007,0.333-0.014,0.667-0.014,1.003c0,0.046,0.003,0.092,0.003,0.138l-3.582,2.506
		C2.192,33.874,2.292,35.32,3.774,36.153z M32.322,10.441c2.545,0,4.608,1.934,4.608,4.32c0,2.386-2.063,4.32-4.608,4.32
		s-4.608-1.934-4.608-4.32C27.714,12.376,29.777,10.441,32.322,10.441z"/>
</g>
</svg>
