<?xml version="1.0" encoding="iso-8859-1"?>
<!-- Generator: Adobe Illustrator 17.0.0, SVG Export Plug-In . SVG Version: 6.00 Build 0)  -->
<!DOCTYPE svg PUBLIC "-//W3C//DTD SVG 1.1//EN" "http://www.w3.org/Graphics/SVG/1.1/DTD/svg11.dtd">
<svg version="1.1" id="Capa_1" xmlns="http://www.w3.org/2000/svg" xmlns:xlink="http://www.w3.org/1999/xlink" x="0px" y="0px"
	 width="64px" height="64px" viewBox="0 0 64 64" style="enable-background:new 0 0 64 64;" xml:space="preserve">
<g>
	<path d="M29.643,21.798c0.929,0,1.774-0.331,2.453-0.863c0.616,0.532,1.472,0.863,2.42,0.863c1.877,0,3.399-1.293,3.399-2.888
		c0-0.642-0.255-1.23-0.673-1.71c0.081-0.291,0.139-0.592,0.139-0.91c0-1.812-1.419-3.28-3.169-3.28
		c-0.229,0-0.452,0.028-0.668,0.076c-0.3-1.116-1.3-1.941-2.501-1.941c-1.437,0-2.602,1.176-2.602,2.626
		c0,0.068,0.015,0.132,0.02,0.198c-1.63,0.508-2.822,2.014-2.822,3.815C25.64,20.002,27.432,21.798,29.643,21.798z"/>
	<path d="M10.167,22.667c-0.016,1.835-0.141,3.824,1.209,5.276c1.123,1.208,2.659,1.803,4.164,2.422
		c0.405,9.544,4.047,17.675,9.196,21.633c-0.693,1.624-1.492,3.198-2.365,4.746c-0.317,0.562-0.271,1.369,0.235,1.818
		c1.423,1.264,3.107,1.925,4.804,2.734c1.737,0.829,3.26-1.757,1.514-2.59c-1.104-0.527-2.288-0.964-3.325-1.624
		c0.619-1.154,1.195-2.327,1.72-3.523c1.433,0.654,2.945,1.012,4.511,1.012c4.964,0,9.407-3.528,12.402-9.089
		c2.199,0.918,4.872,1.624,7.12,1.779c2.931,0.202,4.383-2.314,5.611-4.67c0.893-1.713-1.696-3.23-2.59-1.514
		c-0.388,0.744-1.003,1.439-1.492,2.12c-0.887,1.234-1.377,1.13-2.781,0.792c-1.512-0.365-3.114-0.673-4.583-1.234
		c1.465-3.576,2.393-7.76,2.599-12.263c1.636-0.538,3.242-1.219,4.544-2.331c1.872-1.6,2.63-3.76,2.842-6.159
		c0.17-1.928-2.832-1.912-3,0c-0.252,2.867-2.005,4.278-4.223,5.211C48.324,13.564,40.286,4,31.829,4
		c-8.416,0-15.343,10.131-16.231,23.146c-0.517-0.232-1.026-0.477-1.508-0.774c-1.257-0.777-0.935-2.46-0.924-3.705
		C13.184,20.731,10.184,20.733,10.167,22.667z M38.983,34.687c-1.549,0-1.549-2.402,0-2.402
		C40.531,32.286,40.531,34.687,38.983,34.687z M29.243,34.954c-1.549,0-1.549-2.402,0-2.402
		C30.791,32.553,30.791,34.954,29.243,34.954z M45.223,38.362c-1.189,2.209-2.777,1.926-5.042,1.852
		c-3.664-0.119-7.331-0.119-10.995-0.266c-3.328-0.134-9.735,1.191-10.084-3.392c-0.118-1.545,2.285-1.534,2.402,0
		c0.113,1.49,10.565,1.06,12.013,1.102c1.728,0.05,8.679,1.262,9.632-0.507C43.884,35.786,45.957,36.999,45.223,38.362z
		 M23.669,13.738C25.016,11.595,27.868,8,31.829,8c2.467,0,5.009,1.283,7.157,3.613c3.127,3.392,4.987,8.515,5.249,14.169
		c-1.132-0.022-2.466,0.07-3.954,0.199H23.57c-1.437-0.124-2.727-0.213-3.834-0.199C20.25,21.208,21.6,17.031,23.669,13.738z"/>
</g>
</svg>
