<?xml version="1.0" encoding="iso-8859-1"?>
<!-- Generator: Adobe Illustrator 17.0.0, SVG Export Plug-In . SVG Version: 6.00 Build 0)  -->
<!DOCTYPE svg PUBLIC "-//W3C//DTD SVG 1.1//EN" "http://www.w3.org/Graphics/SVG/1.1/DTD/svg11.dtd">
<svg version="1.1" id="Capa_1" xmlns="http://www.w3.org/2000/svg" xmlns:xlink="http://www.w3.org/1999/xlink" x="0px" y="0px"
	 width="64px" height="64px" viewBox="0 0 64 64" style="enable-background:new 0 0 64 64;" xml:space="preserve">
<g>
	<path d="M6.805,16.555c-0.649,2.351-0.492,4.199,0.47,5.498c1.039,1.404,2.964,2.116,5.718,2.116c2.187,0,4.32-0.449,5.339-0.699
		c0.229,3.896,1.931,4.499,2.959,4.499c1.244,0,2.596-0.857,3.711-2.042c0.26,1.566,0.464,3.135,0.578,4.705
		c0.205,2.826-0.766,5.251-2.587,7.381c-2.273,2.66-4.816,0.853-7.66-0.299c-4.359-1.764-9.457,1.884-10.593,6.015
		c-1.354,4.924,1.667,8.833,6.015,10.593c0.863,0.35,1.716,0.64,2.563,0.898l-2.135,5.423c-0.404,1.027,0.101,2.189,1.129,2.593
		c0.24,0.095,0.488,0.14,0.731,0.14c0.798,0,1.552-0.48,1.862-1.268l2.359-5.992c3.033,0.432,5.918,0.238,8.618-0.52l1.924,5.506
		c0.288,0.825,1.061,1.341,1.888,1.341c0.219,0,0.441-0.036,0.66-0.112c1.042-0.364,1.592-1.505,1.228-2.548l-1.977-5.66
		c3.961-2.053,7.4-5.488,10.116-10.205c3.238-5.622,3.5-11.927,2.685-18.281c0.15,0.023,0.299,0.035,0.446,0.035
		c1.029,0,2.731-0.603,2.959-4.499c1.019,0.25,3.152,0.699,5.338,0.699c0.001,0,0.001,0,0.001,0c2.755,0,4.679-0.712,5.719-2.116
		c0.962-1.299,1.119-3.147,0.47-5.498c1.151-0.75,4.566-3.195,4.376-5.661c-0.094-1.214-1.023-2.194-2.762-2.913l-0.098-0.029
		c-0.048-0.008-2.864-0.517-5.782,1.022c-1.18,0.587-8.414,4.254-12.806,7.958c-0.558-2.42-1.112-4.792-1.551-7.076
		c-2.091-10.901-18.689-6.272-16.608,4.579c0.258,1.347,0.552,2.699,0.854,4.053c-4.415-3.439-10.786-6.667-11.88-7.212
		C8.146,7.432,5.337,7.944,5.288,7.951L5.19,7.98C3.451,8.699,2.522,9.68,2.429,10.894C2.238,13.36,5.653,15.805,6.805,16.555z
		 M32.442,7.533c0-1.373,1.117-2.49,2.49-2.49s2.49,1.117,2.49,2.49V7.99c0,1.373-1.117,2.49-2.49,2.49s-2.49-1.117-2.49-2.49V7.533
		z M30.588,15.067c0.049,1.055,0.077,2.245,0.488,3.235c0.326,0.786,1.121,2.085,2.191,1.858c2.299-0.489,1.467-4.802,1.289-6.376
		c-0.166-1.468,2.099-1.85,2.266-0.378c0.334,2.95,0.83,8.826-3.532,9.037c-3.752,0.182-4.833-4.087-4.967-6.998
		C28.255,13.983,30.52,13.592,30.588,15.067z M26.76,6.163c1.49,0,2.702,1.212,2.702,2.703c0,1.563-1.212,2.775-2.702,2.775
		s-2.703-1.212-2.703-2.703C24.057,7.375,25.27,6.163,26.76,6.163z"/>
	<path d="M26.76,10.641c0.938,0,1.702-0.764,1.702-1.703c0-1.012-0.764-1.775-1.702-1.775c-0.939,0-1.703,0.764-1.703,1.703
		C25.057,9.877,25.82,10.641,26.76,10.641z"/>
	<path d="M34.933,9.48c0.821,0,1.49-0.668,1.49-1.49V7.533c0-0.822-0.669-1.49-1.49-1.49s-1.49,0.668-1.49,1.49V7.99
		C33.442,8.812,34.111,9.48,34.933,9.48z"/>
</g>
</svg>
