<?xml version="1.0" encoding="iso-8859-1"?>
<!-- Generator: Adobe Illustrator 17.0.0, SVG Export Plug-In . SVG Version: 6.00 Build 0)  -->
<!DOCTYPE svg PUBLIC "-//W3C//DTD SVG 1.1//EN" "http://www.w3.org/Graphics/SVG/1.1/DTD/svg11.dtd">
<svg version="1.1" id="Capa_1" xmlns="http://www.w3.org/2000/svg" xmlns:xlink="http://www.w3.org/1999/xlink" x="0px" y="0px"
	 width="64px" height="64px" viewBox="0 0 64 64" style="enable-background:new 0 0 64 64;" xml:space="preserve">
<g>
	<path d="M55.771,24.002c-1.257,0-2.435,0.331-3.458,0.905l-0.625-4.784c0-5.523-4.477-10-10-10H22.855c-5.523,0-10,4.477-10,10
		l-0.676,5.174c-1.153-0.813-2.556-1.295-4.074-1.295c-3.912,0-7.083,3.171-7.083,7.083v2c0,3.912,3.171,7.083,7.083,7.083
		c0.76,0,1.49-0.123,2.176-0.344l-0.252,1.93c-1.902,0.668-3.648,1.828-4.824,3.489C3.33,47.892,3.33,50.876,3.5,54
		c0.105,1.924,3.105,1.934,3,0c-0.111-2.027-0.304-4.139,0.536-6.048c0.549-1.248,1.702-2.301,3.002-2.984
		c0.846,4.437,4.621,7.826,9.237,8.092c-0.016,0.141-0.043,0.279-0.043,0.425v3.832c0,2.035,1.65,3.685,3.685,3.685
		s3.685-1.65,3.685-3.685v-3.832c0-0.137-0.026-0.266-0.04-0.399h9.71c-0.014,0.133-0.04,0.262-0.04,0.399v3.832
		c0,2.035,1.65,3.685,3.685,3.685s3.685-1.65,3.685-3.685v-3.832c0-0.137-0.026-0.266-0.04-0.399h1.126
		c4.982,0,9.102-3.648,9.863-8.416c2.724,1.833,2.883,5.799,2.783,9.164c-0.058,1.936,2.942,1.93,3,0
		c0.151-5.042-0.785-10.809-5.884-12.575l-0.163-1.249c0.479,0.102,0.975,0.159,1.485,0.159c3.912,0,7.083-3.171,7.083-7.083v-2
		C62.855,27.173,59.683,24.002,55.771,24.002z M34.375,12.195c0.439-0.33,1.068-0.239,1.399,0.204l1.882,2.522
		c0.243,0.325,0.254,0.748,0.069,1.082c-0.067,0.12-0.156,0.23-0.273,0.318c-0.179,0.134-0.389,0.198-0.597,0.198
		c-0.156,0-0.309-0.038-0.449-0.108c-0.135-0.068-0.257-0.165-0.353-0.294l-1.882-2.522C33.841,13.152,33.932,12.525,34.375,12.195z
		 M26.211,14.754l3-2.522c0.424-0.354,1.053-0.301,1.409,0.122c0.355,0.423,0.301,1.054-0.122,1.409l-2.911,2.448l-0.089,0.074
		c-0.188,0.157-0.416,0.234-0.643,0.234c-0.285,0-0.568-0.121-0.766-0.356c-0.097-0.115-0.157-0.247-0.194-0.383
		C25.797,15.416,25.904,15.012,26.211,14.754z M8.105,36.668c-2.531,0-4.583-2.052-4.583-4.583s2.052-4.583,4.583-4.583
		c1.446,0,2.72,0.683,3.56,1.729c0.63,0.785,1.023,1.769,1.023,2.854c0,1.515-0.744,2.848-1.877,3.682
		C10.051,36.327,9.121,36.668,8.105,36.668z M48.105,38.172c0,3.408-1.708,6.413-4.31,8.218l-2.899-7.465l-8.294,8.294l-8.294-8.294
		l-3.029,7.801c-2.898-1.751-4.841-4.922-4.841-8.555v-9.129c0-2.502,0.925-4.784,2.444-6.537l5.234,7.027l5.945-10.49h4.471
		l5.945,10.49l5.211-6.996c1.502,1.75,2.416,4.02,2.416,6.507V38.172z M55.771,36.668c-0.714,0-1.381-0.177-1.983-0.468
		c-1.534-0.741-2.601-2.298-2.601-4.115c0-1.391,0.633-2.622,1.611-3.462c0.802-0.689,1.832-1.121,2.973-1.121
		c2.531,0,4.583,2.052,4.583,4.583S58.303,36.668,55.771,36.668z"/>
	<circle cx="8.105" cy="32.085" r="2.978"/>
	<path d="M55.771,29.168c-1.197,0-2.223,0.722-2.672,1.753c-0.156,0.357-0.244,0.749-0.244,1.163c0,0.679,0.241,1.295,0.63,1.791
		c0.534,0.68,1.354,1.126,2.286,1.126c1.611,0,2.917-1.306,2.917-2.917S57.382,29.168,55.771,29.168z"/>
</g>
</svg>
