<?xml version="1.0" encoding="iso-8859-1"?>
<!-- Generator: Adobe Illustrator 17.0.0, SVG Export Plug-In . SVG Version: 6.00 Build 0)  -->
<!DOCTYPE svg PUBLIC "-//W3C//DTD SVG 1.1//EN" "http://www.w3.org/Graphics/SVG/1.1/DTD/svg11.dtd">
<svg version="1.1" id="Capa_1" xmlns="http://www.w3.org/2000/svg" xmlns:xlink="http://www.w3.org/1999/xlink" x="0px" y="0px"
	 width="64px" height="64px" viewBox="0 0 64 64" style="enable-background:new 0 0 64 64;" xml:space="preserve">
<g>
	<path d="M7.195,50.847c0.172,0.412,0.547,0.727,1.136,0.711c9.158-0.255,18.563-2.756,27.703-1.45
		c6.831,0.976,12.048,3.986,18.048-0.972c5.489-4.535,6.389-11.089,4.735-17.307c3.875-2.982,4.7-8.52,1.807-12.501
		c-0.713-0.981-1.589-1.773-2.56-2.375c-0.204,0.602-0.767,1.039-1.439,1.039c-0.842,0-1.525-0.683-1.525-1.525
		c0-0.234,0.057-0.453,0.151-0.651c-2.195-0.485-4.557-0.161-6.599,1.06c-8.998-6.458-21.705-5.973-30.987-0.489
		C7.048,22.661,0.584,38.871,6.466,50.274C6.61,50.555,6.891,50.752,7.195,50.847z M7.043,39.603
		c0.076-3.078,0.897-6.072,1.948-8.941c1.973-5.388,6.03-9.718,10.903-12.597c8.316-4.914,19.11-4.269,27.136,0.814
		c5.048,3.198,8.337,8.508,9.559,14.273c0.406,1.916,0.395,3.975,0.025,5.969c-11.582-0.151-23.568-3.517-35.84-2.943
		c-1.914,0.09-2.704,2.59-0.797,2.893c1.46,0.232,2.935,0.418,4.42,0.57c-0.173,0.393-0.38,0.789-0.396,1.234
		c-0.03,0.804,0.253,1.481,0.862,2.011c1.087,0.946,2.61,0.906,3.945,1.162c1.48,0.285,3.676,1.014,5.09,0.142
		c1.427-0.88,1.345-2.539,1.783-3.98c6.395,0.073,13.836,1.847,20.074,1.902c-1.575,3.95-4.732,7.13-9.212,7.546
		c-3.192,0.297-6.728-1.414-9.823-2.039c-2.474-0.499-5.04-0.472-7.545-0.361c-6.72,0.297-13.364,1.429-20.088,1.685
		c-0.193-0.353-0.552-0.611-1.077-0.611C7.253,48.334,7.018,40.616,7.043,39.603z"/>
	<path d="M38.562,34.592c5.005,0,9.063-4.057,9.063-9.062c0-5.005-4.057-9.062-9.063-9.062c-5.005,0-9.062,4.057-9.062,9.062
		C29.5,30.534,33.557,34.592,38.562,34.592z M36,18.92c1.381,0,2.5,1.119,2.5,2.5c0,1.381-1.119,2.5-2.5,2.5s-2.5-1.119-2.5-2.5
		C33.5,20.039,34.619,18.92,36,18.92z"/>
</g>
</svg>
