<?xml version="1.0" encoding="iso-8859-1"?>
<!-- Generator: Adobe Illustrator 17.0.0, SVG Export Plug-In . SVG Version: 6.00 Build 0)  -->
<!DOCTYPE svg PUBLIC "-//W3C//DTD SVG 1.1//EN" "http://www.w3.org/Graphics/SVG/1.1/DTD/svg11.dtd">
<svg version="1.1" id="Capa_1" xmlns="http://www.w3.org/2000/svg" xmlns:xlink="http://www.w3.org/1999/xlink" x="0px" y="0px"
	 width="64px" height="64px" viewBox="0 0 64 64" style="enable-background:new 0 0 64 64;" xml:space="preserve">
<g>
	<path d="M58.843,39.419c-0.383,0-0.776-0.009-1.175-0.027l-2.37-6.347l-6.059,4.832c-2.9-0.956-5.033-2.279-5.033-3.74
		c0-0.91,0.828-1.767,2.153-2.515l4.178,3.838l3.593-6.214c1.607-0.251,3.229-0.392,4.713-0.392c1.215,0,2.381,0.096,3.475,0.267
		c-4.461-5.698-11.362-9.639-19.294-10.472C41.301,5.097,27.167,7.198,16.545,6.807c-5.68-0.209-5.66,8.596,0,8.804
		c4.033,0.149,16.79-2.072,17.712,3.41c-7.026,1.346-13.064,5.16-17.052,10.418C14.762,27.065,10.273,22.907,6.937,21
		c-1.341-0.765-2.654-0.326-3.641,1.239c-2.348,3.716-2.94,14.06-0.33,19.546c0.742,1.562,2.019,2.353,3.794,2.353
		c3.726,0,8.87-3.612,11.786-5.926c3.03,3.391,6.966,6.058,11.479,7.654c-4.184,1.543-10.028,0.818-13.774,0.413
		c-5.641-0.611-5.582,8.2,0,8.804c9.015,0.976,20.276,0.455,25.214-7.581c6.261-0.328,11.95-2.593,16.418-6.146l0.55,0.086
		l-0.152-0.407c0.637-0.526,1.25-1.076,1.832-1.653C59.696,39.405,59.273,39.419,58.843,39.419z M54.39,36.328l0.974,2.608
		l-3.547-0.557L54.39,36.328z M40.973,29.052c0,2.559-2.082,4.641-4.641,4.641s-4.64-2.082-4.64-4.641s2.081-4.641,4.64-4.641
		S40.973,26.493,40.973,29.052z M48.791,31.141l2.216-0.489L50.054,32.3L48.791,31.141z"/>
</g>
</svg>
