<?xml version="1.0" encoding="iso-8859-1"?>
<!-- Generator: Adobe Illustrator 17.0.0, SVG Export Plug-In . SVG Version: 6.00 Build 0)  -->
<!DOCTYPE svg PUBLIC "-//W3C//DTD SVG 1.1//EN" "http://www.w3.org/Graphics/SVG/1.1/DTD/svg11.dtd">
<svg version="1.1" id="Capa_1" xmlns="http://www.w3.org/2000/svg" xmlns:xlink="http://www.w3.org/1999/xlink" x="0px" y="0px"
	 width="64px" height="64px" viewBox="0 0 64 64" style="enable-background:new 0 0 64 64;" xml:space="preserve">
<g>
	<path d="M59,20.25c1.363,0,2.5-1.137,2.5-2.5s-1.137-2.5-2.5-2.5h-0.25c-0.129,0-0.253,0.019-0.376,0.039
		C56.569,9.335,51.043,5,44.5,5c-4.691,0-8.85,2.237-11.5,5.693C30.35,7.237,26.191,5,21.5,5C14.881,5,9.309,9.44,7.572,15.5H6.75
		c-1.363,0-2.5,1.137-2.5,2.5s1.137,2.5,2.5,2.5h0.291c0.194,2.815,1.195,5.405,2.768,7.552C9.781,28.195,9.755,28.341,9.75,28.5
		c-0.228,7.06-0.281,14.132-1.661,21.085c-0.625,3.149,4.194,4.49,4.821,1.329c1.223-6.162,1.514-12.393,1.719-18.645
		c1.402,0.756,2.945,1.282,4.576,1.542l0.037,19.354c-2.231-0.627-4.597,2.248-2.51,4.102c2.114,1.878,4.662,1.516,7.268,1.482
		c2.035-0.026,2.783-2.03,2.247-3.493l-0.041-21.198c1.006-0.02,1.964-0.095,2.856-0.297c2.612,0.022,5.222,0.046,7.83-0.011
		c1.475,0.342,3.127,0.337,4.892,0.296l-0.71,22.103c-1.041,1.425-0.403,4.049,1.926,4.098c2.96,0.062,6.038,1.005,8.915-0.089
		c2.983-1.135,1.69-5.97-1.329-4.821c-0.793,0.302-1.635,0.387-2.494,0.377l0.719-22.38c1.47-0.461,2.842-1.145,4.072-2.019
		C55.46,37.584,55.992,43.526,56,50.5c0.004,3.224,5.004,3.224,5,0c-0.005-4.036-0.073-8.086-0.626-12.091
		c-0.56-4.059-2.05-7.347-3.751-10.966c1.37-2.086,2.213-4.546,2.349-7.194H59z M41.85,12.07c1.96,0,3.549,1.439,3.549,3.215
		S43.81,18.5,41.85,18.5s-3.549-1.439-3.549-3.215S39.89,12.07,41.85,12.07z M22.75,13.07c1.795,0,3.25,1.439,3.25,3.215
		S24.545,19.5,22.75,19.5s-3.25-1.439-3.25-3.215S20.955,13.07,22.75,13.07z M48.25,25.5h-32c-1.935,0-1.935-3,0-3h32
		C50.185,22.5,50.185,25.5,48.25,25.5z"/>
</g>
</svg>
