<?xml version="1.0" encoding="utf-8"?>
<!-- Generator: Adobe Illustrator 16.0.0, SVG Export Plug-In . SVG Version: 6.00 Build 0)  -->
<!DOCTYPE svg PUBLIC "-//W3C//DTD SVG 1.1//EN" "http://www.w3.org/Graphics/SVG/1.1/DTD/svg11.dtd">
<svg version="1.1" id="Layer_1" xmlns="http://www.w3.org/2000/svg" xmlns:xlink="http://www.w3.org/1999/xlink" x="0px" y="0px"
	 width="50px" height="50px" viewBox="0 0 50 50" enable-background="new 0 0 50 50" xml:space="preserve">
<g>
	<circle cx="36.165" cy="19.536" r="1.05"/>
	<path d="M36.268,14.756C33.266,12.095,27.98,12.878,25,15.552c-2.98-2.674-8.264-3.457-11.266-0.797
		c-2.599,0.055-4.691,2.17-4.691,4.781c0,2.053,1.295,3.789,3.108,4.472C14.856,31.535,25,36.89,25,36.89
		s10.144-5.354,12.849-12.882c1.813-0.683,3.108-2.419,3.108-4.472C40.957,16.926,38.866,14.812,36.268,14.756z M13.834,23.178
		c-2.008,0-3.642-1.634-3.642-3.642s1.633-3.641,3.642-3.641c2.008,0,3.641,1.633,3.641,3.641S15.842,23.178,13.834,23.178z
		 M25,21.938c2.008,0,3.642,2.633,3.642,4.641S27.008,29.22,25,29.22c-2.008,0-3.641-0.634-3.641-2.642S22.992,21.938,25,21.938z
		 M25,32.078c-3.033,0-5.5-0.087-5.5-0.363c0-0.275,2.466-0.637,5.5-0.637c3.034,0,5.5,0.361,5.5,0.637
		C30.5,31.991,28.033,32.078,25,32.078z M36.166,23.178c-2.008,0-3.641-1.634-3.641-3.642s1.633-3.641,3.641-3.641
		c2.008,0,3.642,1.633,3.642,3.641S38.174,23.178,36.166,23.178z"/>
	<circle cx="23.45" cy="26.936" r="1.05"/>
	<circle cx="26.55" cy="26.936" r="1.05"/>
	<circle cx="13.834" cy="19.536" r="1.05"/>
</g>
</svg>
