<?xml version="1.0" encoding="iso-8859-1"?>
<!-- Generator: Adobe Illustrator 17.0.0, SVG Export Plug-In . SVG Version: 6.00 Build 0)  -->
<!DOCTYPE svg PUBLIC "-//W3C//DTD SVG 1.1//EN" "http://www.w3.org/Graphics/SVG/1.1/DTD/svg11.dtd">
<svg version="1.1" id="Capa_1" xmlns="http://www.w3.org/2000/svg" xmlns:xlink="http://www.w3.org/1999/xlink" x="0px" y="0px"
	 width="64px" height="64px" viewBox="0 0 64 64" style="enable-background:new 0 0 64 64;" xml:space="preserve">
<g>
	<path d="M13.118,55.395v3.878c0,1.381,1.119,2.5,2.5,2.5s2.5-1.119,2.5-2.5v-2.455c1.138,0.249,2.325,0.463,3.554,0.64v1.815
		c0,1.381,1.119,2.5,2.5,2.5s2.5-1.119,2.5-2.5v-1.321c1.132,0.063,2.284,0.099,3.457,0.099c1.278,0,2.534-0.041,3.763-0.115v1.337
		c0,1.381,1.119,2.5,2.5,2.5s2.5-1.119,2.5-2.5v-1.858c1.23-0.184,2.417-0.406,3.554-0.662v2.521c0,1.381,1.119,2.5,2.5,2.5
		s2.5-1.119,2.5-2.5v-3.99c2.687-1.003,4.878-2.235,6.402-3.625c1.538-1.401,2.401-2.961,2.401-4.606
		c0-0.58-0.108-1.148-0.313-1.704c-1.077-5.052-7.324-9.447-7.324-9.447c-1.273-0.664-2.181-2.193-2.826-3.869
		c-0.473,0.001-0.972,0.069-1.555,0.25c-0.094,0.029-0.189,0.06-0.283,0.089c-1.862,0.582-3.785,1.221-5.689,1.606
		c-0.447,0.09-0.877,0.153-1.299,0.202c-3.379,0.394-6.029-0.522-8.811-2.864c-2.52-2.121-0.76-5.257,1.752-5.955v4.104h5.117
		v-2.576c1.253,0.214,2.691-0.117,4.099-0.575v3.818h1.351h3.731h0.035v-0.444v-3.901v-1.031c0.014-0.002,0.027-0.002,0.041-0.004
		C43.606,12.34,37.189,2.602,29.366,2.602c-8.267,0-14.97,10.874-14.97,24.287c-1.065,9.016-2.291,5.652-6.721,10.998
		c-4.43,5.346-3.666,9.165-3.666,9.165C4.009,50.39,7.544,53.378,13.118,55.395z M27.38,15.586c0-2.025,1.641-3.666,3.666-3.666
		h5.041c2.025,0,3.666,1.641,3.666,3.666v1.68c0,2.025-1.641,3.666-3.666,3.666h-5.041c-2.025,0-3.666-1.641-3.666-3.666V15.586z"/>
	<circle cx="31.352" cy="15.128" r="2.52"/>
</g>
</svg>
