<?xml version="1.0" encoding="iso-8859-1"?>
<!-- Generator: Adobe Illustrator 17.0.0, SVG Export Plug-In . SVG Version: 6.00 Build 0)  -->
<!DOCTYPE svg PUBLIC "-//W3C//DTD SVG 1.1//EN" "http://www.w3.org/Graphics/SVG/1.1/DTD/svg11.dtd">
<svg version="1.1" id="Capa_1" xmlns="http://www.w3.org/2000/svg" xmlns:xlink="http://www.w3.org/1999/xlink" x="0px" y="0px"
	 width="64px" height="64px" viewBox="0 0 64 64" style="enable-background:new 0 0 64 64;" xml:space="preserve">
<g>
	<path d="M44.236,33.082c3.216,1.903,6.424,3.877,8.681,6.935c2.883,3.907,2.833,9.707,3.506,14.314
		c0.465,3.181,5.282,1.823,4.821-1.329c-0.786-5.376-1.173-10.734-4.01-15.508c-2.518-4.237-7.375-6.894-11.472-9.319
		c-0.737-0.436-1.451-0.446-2.057-0.205c-0.103-0.299-0.221-0.592-0.348-0.879C50.824,21.91,57.012,14.323,56.25,4.75
		c-0.254-3.192-5.256-3.216-5,0c0.623,7.829-4.382,13.861-10.512,18.091c-0.121,0.084-0.22,0.178-0.32,0.271
		c-1.986-1.729-4.577-2.779-7.418-2.779c-2.393,0-4.606,0.749-6.432,2.016c-0.217-0.685-0.74-1.271-1.653-1.51
		c-3.001-0.787-5.482-2.904-8.199-4.341c-1.347-0.712-2.632-1.318-2.979-2.893c-0.346-1.572-1.084-3.265-1.237-4.855
		c-0.305-3.18-5.308-3.21-5,0c0.179,1.862,0.891,3.505,1.263,5.325c0.443,2.164,1.002,3.619,2.765,5.036
		c1.672,1.343,3.678,2.136,5.471,3.287c2.067,1.327,4.056,2.565,6.438,3.219c-0.601,0.95-1.072,1.992-1.371,3.106
		c-0.513-0.102-1.079-0.039-1.662,0.286c-8.823,4.92-12.487,13.819-15.649,22.827c-1.071,3.05,3.761,4.351,4.821,1.329
		c2.606-7.425,5.422-14.833,12.32-19.212c0.718,3.504,3.055,6.415,6.194,7.927c-0.332,3.285-0.862,6.546-1.063,9.846
		c-0.051,0.844,0.511,3.58-0.046,4.257c-0.546,0.663-3.101-0.032-3.818-0.143c-3.153-0.49-4.508,4.328-1.329,4.821
		c3.325,0.517,8.375,1.292,9.815-2.841c0.807-2.316,0.308-4.954,0.456-7.37c0.152-2.495,0.554-4.969,0.861-7.451
		C32.978,42.999,32.989,43,33,43c0.449,0,0.888-0.035,1.323-0.086C34.407,50.3,33.787,60.682,43.5,60c3.198-0.225,3.219-5.226,0-5
		c-3.024,0.212-3.537-0.856-3.75-3.75c-0.249-3.382-0.286-6.777-0.471-10.164C41.946,39.301,43.819,36.421,44.236,33.082z
		 M33,36.167c-4.694,0-8.5,0.194-8.5-4.5c0-4.694,3.806-8.5,8.5-8.5s8.5,3.806,8.5,8.5C41.5,36.361,37.694,36.167,33,36.167z"/>
	<circle cx="33" cy="29.667" r="4.764"/>
</g>
</svg>
