<?xml version="1.0" encoding="iso-8859-1"?>
<!-- Generator: Adobe Illustrator 17.0.0, SVG Export Plug-In . SVG Version: 6.00 Build 0)  -->
<!DOCTYPE svg PUBLIC "-//W3C//DTD SVG 1.1//EN" "http://www.w3.org/Graphics/SVG/1.1/DTD/svg11.dtd">
<svg version="1.1" id="Capa_1" xmlns="http://www.w3.org/2000/svg" xmlns:xlink="http://www.w3.org/1999/xlink" x="0px" y="0px"
	 width="64px" height="64px" viewBox="0 0 64 64" style="enable-background:new 0 0 64 64;" xml:space="preserve">
<g>
	<path d="M7.036,48.74c0.818-0.588,1.837-1.24,2.931-1.761c-1.963,1.62-3.383,3.863-3.838,6.748
		c-0.596,3.784,5.185,5.409,5.786,1.595c0.577-3.661,3.259-5.147,6.414-5.44c1.448,3.738,5.069,6.392,9.318,6.392h9.75
		c4.17,0,7.741-2.554,9.241-6.182c0.227,0.145,0.429,0.327,0.653,0.569c0.151,0.163,0.443,0.92,0.612,1.6
		c0.232,0.93,0.235,1.903,0.243,2.888c0.033,3.867,6.033,3.871,6,0c-0.02-2.32-0.307-4.539-1.248-6.547
		c1.379,1.174,2.003,3.371,2.48,4.97c1.105,3.698,6.897,2.121,5.786-1.595c-1.062-3.552-2.605-6.764-5.722-8.918
		c-2.319-1.603-5.264-1.755-8.045-1.447V18.269c2.613-0.386,7.526-1.917,5.375-7.995c-2.589-7.317-1.835-0.545-5.494,1.788
		c-0.709-4.828-4.857-8.538-9.881-8.538h-9.75c-5.523,0-10,4.477-10,10v0.571c-1.862-0.755-4.105-2.545-4.25-6.821
		c-0.241-7.099-10.891,17.867,4.25,14.51V40.87c-4.42-1.806-9.699-0.144-13.639,2.688C0.897,45.795,3.887,51.003,7.036,48.74z
		 M41.584,33.954h-2.786l-2.902,3.57l-3.202-3.57h-2.818l-2.246,5.07c0,0-0.73-3.335-1.206-5.07h-2.654v-1.78h17.812V33.954z
		 M33.043,8.899c5.81,0,10.521,4.71,10.521,10.521c0,5.811-4.71,10.521-10.521,10.521c-5.548,0-10.083-4.298-10.482-9.744
		c-0.019-0.257-0.039-0.515-0.039-0.777c0-1.585,0.361-3.083,0.989-4.431C25.184,11.396,28.817,8.899,33.043,8.899z"/>
	<path d="M31.294,20.81c0.122,4.09,0.764,7.214,1.54,7.214c0.776,0,1.417-3.123,1.54-7.214c3.785-0.127,6.648-0.71,6.648-1.411
		s-2.863-1.285-6.648-1.411c-0.122-4.09-0.764-7.214-1.54-7.214c-0.776,0-1.417,3.123-1.54,7.214
		c-2.212,0.074-4.107,0.304-5.302,0.623c-0.757,0.202-1.226,0.44-1.319,0.695c-0.011,0.031-0.027,0.062-0.027,0.093
		C24.647,20.1,27.509,20.684,31.294,20.81z"/>
</g>
</svg>
