<?xml version="1.0" encoding="iso-8859-1"?>
<!-- Generator: Adobe Illustrator 17.0.0, SVG Export Plug-In . SVG Version: 6.00 Build 0)  -->
<!DOCTYPE svg PUBLIC "-//W3C//DTD SVG 1.1//EN" "http://www.w3.org/Graphics/SVG/1.1/DTD/svg11.dtd">
<svg version="1.1" id="Capa_1" xmlns="http://www.w3.org/2000/svg" xmlns:xlink="http://www.w3.org/1999/xlink" x="0px" y="0px"
	 width="64px" height="64px" viewBox="0 0 64 64" style="enable-background:new 0 0 64 64;" xml:space="preserve">
<g>
	<path d="M60.964,32.317c-0.087-3.49-3.026-6.233-6.477-6.162l-6.445,0.16l2.471-2.247c2.583-2.349,2.772-6.347,0.424-8.93
		c-2.349-2.584-6.347-2.772-8.93-0.424l-3.304,3.005l-0.148-9.031c-0.074-4.52-2.975-8.081-6.454-8.012
		c-3.491,0.096-6.26,3.839-6.185,8.359l0.118,7.186l-3.825-5.134c-2.086-2.798-6.046-3.377-8.846-1.292
		c-2.799,2.086-3.378,6.046-1.292,8.846l3.672,4.928l-1.589-0.219c-3.451-0.474-6.647,1.943-7.123,5.401
		c-0.362,2.63,0.953,5.101,3.123,6.345c-1.664,0.48-3.301,1.073-4.91,1.774c-1.77,0.771-0.241,3.355,1.514,2.59
		c2.829-1.234,5.819-2.095,8.88-2.468l-5.993,4.672c-2.753,2.147-3.245,6.119-1.099,8.872c1.246,1.598,3.108,2.435,4.99,2.435
		c1.359,0,2.728-0.436,3.882-1.336l5.225-4.074c-0.352,1.5-0.692,3.002-1.077,4.495c-0.513,1.992-1.092,6.312-3.834,5.662
		c-1.881-0.446-2.68,2.447-0.798,2.893c2.802,0.664,4.876,0.452,5.853-2.549c0.447-1.373,0.843-2.754,1.224-4.137
		c0.795,2.07,2.654,3.661,5.006,3.998c0.304,0.044,0.606,0.065,0.905,0.065c2.498,0,4.719-1.495,5.728-3.725
		c0.503,1.336,1.03,2.657,1.609,3.917c1.515,3.296,4.943,3.196,8.073,3.151c1.933-0.028,1.936-3.028,0-3
		c-1.295,0.019-2.579,0.1-3.86-0.144c-1.676-0.32-2.158-2.78-2.594-4.094c-0.659-1.984-1.421-3.933-2.079-5.916l0.081-0.569
		c0.221-0.068,0.435-0.151,0.651-0.228l3.136,3.501c1.249,1.394,2.976,2.104,4.711,2.104c1.501,0,3.008-0.532,4.215-1.612
		c2.601-2.329,2.821-6.326,0.491-8.926L48.09,40.22c3.486,0.844,6.993,1.834,10.344,2.893c1.85,0.585,2.635-2.312,0.798-2.893
		c-1.558-0.492-3.155-0.962-4.762-1.418l0.331-0.008C58.291,38.706,61.05,35.807,60.964,32.317z M26.354,24.833
		c0.327,0,0.63,0.106,0.886,0.285c0.178,0.124,0.332,0.283,0.454,0.47c0.122,0.187,0.211,0.399,0.26,0.629
		C27.983,26.345,28,26.477,28,26.615c0,0.984-0.737,1.782-1.646,1.782c-0.503,0-0.948-0.25-1.25-0.635
		c-0.243-0.311-0.396-0.707-0.396-1.147C24.708,25.63,25.445,24.833,26.354,24.833z M30.895,29.851c1.766,0,3.448,0.221,4.963,0.601
		c1.25,0.314,2.381,0.737,3.339,1.248c2.003,1.068,3.259,2.503,3.259,4.059c0,3.202-5.294,5.908-11.561,5.908
		s-11.562-2.706-11.562-5.908S24.628,29.851,30.895,29.851z M37.555,26.422c0,1.091-0.926,1.975-2.069,1.975
		c-0.353,0-0.68-0.092-0.971-0.241c-0.397-0.203-0.717-0.52-0.906-0.912c-0.119-0.248-0.19-0.521-0.192-0.81
		c-0.001-0.004-0.001-0.008-0.001-0.012c0-1.091,0.926-1.974,2.069-1.974c0.821,0,1.524,0.46,1.858,1.121
		C37.475,25.827,37.555,26.114,37.555,26.422z"/>
	<ellipse cx="26.566" cy="35.25" rx="2.232" ry="3.25"/>
	<ellipse cx="34.417" cy="35.833" rx="2.417" ry="3.833"/>
</g>
</svg>
