<?xml version="1.0" encoding="iso-8859-1"?>
<!-- Generator: Adobe Illustrator 17.0.0, SVG Export Plug-In . SVG Version: 6.00 Build 0)  -->
<!DOCTYPE svg PUBLIC "-//W3C//DTD SVG 1.1//EN" "http://www.w3.org/Graphics/SVG/1.1/DTD/svg11.dtd">
<svg version="1.1" id="Capa_1" xmlns="http://www.w3.org/2000/svg" xmlns:xlink="http://www.w3.org/1999/xlink" x="0px" y="0px"
	 width="64px" height="64px" viewBox="0 0 64 64" style="enable-background:new 0 0 64 64;" xml:space="preserve">
<g>
	<path d="M58.282,15.154c-0.455-0.776-1.418-0.982-2.19-0.574c-0.513,0.271-1.009,0.674-1.503,1.039
		c-0.313-0.38-0.667-0.726-1.062-1.013c0.654-0.503,0.931-1.362,0.487-2.119c-0.418-0.713-1.468-1.066-2.19-0.574
		c-0.836,0.569-1.804,1.491-2.641,1.795c-0.243,0.088-0.457,0.223-0.638,0.387c-0.187,0.083-0.374,0.177-0.562,0.285
		c-1.376,0.785-2.796,1.441-4.243,2.037v-3.477c0-5.893-4.777-10.67-10.67-10.67h-3.379c-5.893,0-10.67,4.777-10.67,10.67v4.205
		c-2.134,0.012-4.267,0.056-6.402,0.063c-0.233,0.001-0.456,0.016-0.672,0.04c-0.072-0.015-0.143-0.031-0.217-0.04
		c-1.36-0.158-2.732-0.177-4.09-0.356c-0.867-0.114-1.6,0.815-1.6,1.6c0,0.959,0.736,1.487,1.6,1.6
		c0.116,0.015,0.234,0.019,0.35,0.032c-0.152,0.33-0.263,0.679-0.35,1.035H6.93c-2.064,0-2.064,3.201,0,3.201H7.73
		c0.07,0.229,0.156,0.451,0.254,0.668c-0.137,0.034-0.275,0.063-0.411,0.101c-1.986,0.553-1.141,3.642,0.851,3.086
		c0.974-0.271,1.924-0.408,2.921-0.447c0.399,0.088,0.817,0.15,1.278,0.148c2.134-0.007,4.268-0.051,6.402-0.063v20.183
		c0,0.69,0.071,1.363,0.196,2.016c-0.115,0.431-0.196,0.874-0.196,1.338v6.046c0,2.908,2.427,5.335,5.335,5.335
		c2.473,0,4.582-1.761,5.163-4.074c0.058,0.001,0.114,0.009,0.172,0.009h3.379c0.058,0,0.114-0.008,0.172-0.009
		c0.581,2.313,2.69,4.074,5.163,4.074c2.908,0,5.335-2.427,5.335-5.335v-7.824c0-0.177-0.036-0.345-0.053-0.517
		c0.034-0.348,0.053-0.701,0.053-1.058V27.805c3.29-1.213,6.579-2.475,9.628-4.213c0.138-0.079,0.253-0.168,0.379-0.253
		c1.234-0.305,2.436-0.633,3.605-1.193c0.786-0.377,0.988-1.484,0.574-2.19c-0.424-0.724-1.23-0.894-1.965-0.641
		c-0.001-0.264-0.017-0.528-0.057-0.79c0.587-0.403,1.153-0.837,1.803-1.18C58.478,16.937,58.708,15.882,58.282,15.154z
		 M24.563,9.901c0.596-0.576,1.545-0.557,2.121,0.042l1.11,1.154l0.335,0.349l0.338,0.351c0.637-0.547,1.32-0.944,2.037-1.164
		v-0.516V9.604V8.138c0-0.828,0.671-1.5,1.5-1.5s1.5,0.672,1.5,1.5v1.56v0.515v0.537c0.666,0.263,1.298,0.682,1.889,1.228l0.31-0.38
		l0.307-0.375l0.822-1.006c0.523-0.641,1.471-0.738,2.11-0.212c0.642,0.523,0.736,1.469,0.212,2.11l-1.228,1.503l-0.32,0.391
		l-0.327,0.4c1.48,2.582,2.405,6.193,2.405,10.193c0,7.823-3.525,14.188-7.858,14.188s-7.858-6.364-7.858-14.188
		c0-4.151,0.998-7.879,2.577-10.476l-0.347-0.361l-0.34-0.354l-1.338-1.391C23.947,11.425,23.966,10.476,24.563,9.901z"/>
	<path d="M31.826,35.58c3.623,0,6.462-4.821,6.462-10.977c0-3.899-1.141-7.257-2.897-9.2c-0.344-0.381-0.711-0.706-1.099-0.971
		c-0.757-0.517-1.588-0.806-2.466-0.806c-0.601,0-1.177,0.144-1.725,0.393c-0.713,0.324-1.374,0.837-1.962,1.52
		c-1.687,1.961-2.775,5.255-2.775,9.064C25.364,30.759,28.203,35.58,31.826,35.58z"/>
</g>
</svg>
