<?xml version="1.0" encoding="iso-8859-1"?>
<!-- Generator: Adobe Illustrator 17.0.0, SVG Export Plug-In . SVG Version: 6.00 Build 0)  -->
<!DOCTYPE svg PUBLIC "-//W3C//DTD SVG 1.1//EN" "http://www.w3.org/Graphics/SVG/1.1/DTD/svg11.dtd">
<svg version="1.1" id="Capa_1" xmlns="http://www.w3.org/2000/svg" xmlns:xlink="http://www.w3.org/1999/xlink" x="0px" y="0px"
	 width="64px" height="64px" viewBox="0 0 64 64" style="enable-background:new 0 0 64 64;" xml:space="preserve">
<g>
	<path d="M58.819,18.564c0-6.431-5.213-11.644-11.644-11.644h-29.23c-6.431,0-11.644,5.213-11.644,11.644v26.299
		c-1.312,1.238-2.135,2.989-2.135,4.935c0,3.751,3.041,6.792,6.792,6.792c2.715,0,5.051-1.597,6.138-3.899
		c1.177,0.98,2.69,1.57,4.341,1.57s3.164-0.59,4.341-1.57c1.087,2.302,3.423,3.899,6.138,3.899c2.475,0,4.635-1.328,5.822-3.307
		c1.187,1.978,3.347,3.307,5.822,3.307c1.859,0,3.543-0.748,4.769-1.959c1.209,1.877,3.312,3.123,5.71,3.123
		c3.751,0,6.792-3.041,6.792-6.792c0-1.888-0.771-3.595-2.015-4.826V18.564z M54.041,34.236l-1.143-0.748
		c-0.976-0.638-1.836-0.213-1.921,0.951l-0.47,6.461c-0.085,1.163-0.499,1.226-0.926,0.141l-3.111-7.908
		c-0.427-1.085-1.252-1.15-1.842-0.144l-4.848,8.257c-0.591,1.006-1.548,1.006-2.138,0l-4.848-8.257
		c-0.591-1.006-1.53-0.995-2.097,0.023l-4.542,8.149c-0.237,0.426-0.536,0.662-0.843,0.731c-0.401,0.09-0.815-0.122-1.135-0.637
		c-0.022-0.035-0.047-0.062-0.068-0.1l-2.234-4.062c-0.562-1.022-1.495-1.034-2.083-0.027l-2.002,3.426
		c-0.022-0.122-0.038-0.246-0.038-0.375V21.246c0-0.557,0.22-1.061,0.573-1.438l4.53,9.456c0.504,1.052,1.445,1.123,2.101,0.159
		l7.005-10.288h3.344l3.158,10.02c0.351,1.112,1.109,1.196,1.694,0.187l5.92-10.207h2.801l2.119,8.337
		c0.287,1.13,0.824,1.151,1.198,0.047l1.845-5.443V34.236z M48.801,9.996c1.393,0,2.523,1.13,2.523,2.523s-1.13,2.523-2.523,2.523
		c-1.393,0-2.523-1.13-2.523-2.523S47.408,9.996,48.801,9.996z M20.274,9.996c1.393,0,2.523,1.13,2.523,2.523
		s-1.13,2.523-2.523,2.523s-2.523-1.13-2.523-2.523S18.881,9.996,20.274,9.996z"/>
</g>
</svg>
