<?xml version="1.0" encoding="iso-8859-1"?>
<!-- Generator: Adobe Illustrator 17.0.0, SVG Export Plug-In . SVG Version: 6.00 Build 0)  -->
<!DOCTYPE svg PUBLIC "-//W3C//DTD SVG 1.1//EN" "http://www.w3.org/Graphics/SVG/1.1/DTD/svg11.dtd">
<svg version="1.1" id="Capa_1" xmlns="http://www.w3.org/2000/svg" xmlns:xlink="http://www.w3.org/1999/xlink" x="0px" y="0px"
	 width="64px" height="64px" viewBox="0 0 64 64" style="enable-background:new 0 0 64 64;" xml:space="preserve">
<g>
	<path d="M32.31,6.822c-10.675,0-19.328,8.202-19.328,18.32c0,6.266,3.324,11.793,8.387,15.096c0.019,1.072,0.072,3.599,0.119,5.815
		c0.046,2.175,1.068,2.485,2.282,0.692l2.783-4.11c0.312,0.092,0.636,0.156,0.954,0.234c0.176,0.646,0.409,1.502,0.667,2.451
		c0.544,2.001,2.005,2.28,3.262,0.623l1.92-2.53c0.147-0.007,0.295-0.011,0.441-0.021c0.318,1.687,1.457,7.67,1.576,7.565
		c0.106-0.094,2.522-5.953,3.629-8.646c0.364-0.128,0.727-0.255,1.08-0.402c0.336,0.585,0.803,1.396,1.321,2.295
		c1.025,1.78,1.841,1.459,1.824-0.716l-0.026-3.214c5.092-3.299,8.437-8.843,8.437-15.131C51.638,15.024,42.984,6.822,32.31,6.822z
		 M35.122,32.142c0.303,0,0.761,0.743,0.761,1.864c0,1.12-0.458,1.863-0.761,1.863s-0.761-0.743-0.761-1.863
		C34.361,32.885,34.819,32.142,35.122,32.142z M40.455,31.142c-2.825,0-5.124-2.339-5.124-5.213s2.299-5.212,5.124-5.212
		s5.124,2.338,5.124,5.212S43.28,31.142,40.455,31.142z M32.019,35.869c-0.133-0.024-0.566-0.646-0.566-1.863
		c0-1.22,0.436-1.843,0.565-1.864c0.132,0.021,0.568,0.643,0.568,1.864C32.585,35.225,32.152,35.846,32.019,35.869z M25.716,31.142
		c-2.825,0-5.124-2.339-5.124-5.213s2.299-5.212,5.124-5.212s5.124,2.338,5.124,5.212S28.541,31.142,25.716,31.142z"/>
	<path d="M60.636,41.625c-0.251,0-0.458,0.065-0.643,0.156l-3.495-2.198c1.045-3.04,1.617-6.326,1.617-9.756
		c0-15.573-11.763-28.197-26.273-28.197S5.569,14.253,5.569,29.826c0,5.137,1.286,9.948,3.522,14.096L3.213,46.86
		c-0.216-0.152-0.486-0.25-0.82-0.25c-1.863,0-1.894,2.872-0.101,2.981c-0.69,0.848-0.331,2.503,1.083,2.503
		c0.507,0,0.874-0.216,1.109-0.528l0.039,0.079c-0.822,0.804-0.5,2.61,0.978,2.61c0.918,0,1.388-0.699,1.418-1.422l6.281-3.139
		c1.693,1.829,3.62,3.406,5.725,4.684l-1.545,3.429c-0.206,0.246-0.339,0.549-0.387,0.859l-0.152,0.338l0.141,0.063
		c0.053,0.52,0.376,0.984,1.052,1.116c1.794,0.35,3.281,1.344,4.884,2.176c1.687,0.876,3.178-1.705,1.486-2.583
		c-0.063-0.033-0.125-0.067-0.188-0.1l1.136-2.522c2.076,0.566,4.249,0.869,6.489,0.869c3.286,0,6.429-0.653,9.328-1.836l4.5,4.856
		l0.361,0.39l0.422,0.455l0.178-0.165c0.216,0.047,0.44,0.043,0.654-0.045c2.213-0.91,3.668-2.434,5.231-4.207
		c1.262-1.432-0.813-3.555-2.082-2.115c-0.079,0.09-0.158,0.181-0.237,0.272l-2.832-3.057c2.344-1.845,4.389-4.098,6.051-6.66
		l2.701,1.699c-0.074,0.798,0.393,1.658,1.411,1.658c1.517,0,1.819-1.906,0.911-2.674l0.11-0.176
		c0.236,0.309,0.601,0.523,1.105,0.523c1.332,0,1.726-1.469,1.19-2.347C62.527,44.38,62.461,41.625,60.636,41.625z M31.842,55.023
		c-12.833,0-23.273-11.303-23.273-25.197S19.009,4.629,31.842,4.629c12.833,0,23.273,11.303,23.273,25.197
		S44.674,55.023,31.842,55.023z"/>
</g>
</svg>
