<?xml version="1.0" encoding="iso-8859-1"?>
<!-- Generator: Adobe Illustrator 17.0.0, SVG Export Plug-In . SVG Version: 6.00 Build 0)  -->
<!DOCTYPE svg PUBLIC "-//W3C//DTD SVG 1.1//EN" "http://www.w3.org/Graphics/SVG/1.1/DTD/svg11.dtd">
<svg version="1.1" id="Capa_1" xmlns="http://www.w3.org/2000/svg" xmlns:xlink="http://www.w3.org/1999/xlink" x="0px" y="0px"
	 width="64px" height="64px" viewBox="0 0 64 64" style="enable-background:new 0 0 64 64;" xml:space="preserve">
<g>
	<path d="M10.135,40.781c1.4,0,2.817,0.203,4.209,0.579c0.951,3.485,1.02,7.187-0.033,10.429c-2.306,7.098,0.719,9.296,6.757,4.909
		c1.963-1.426,4.325-2.38,6.823-2.879c2.289,6.836,5.929,6.836,8.218,0c2.498,0.499,4.86,1.453,6.823,2.879
		c6.038,4.387,9.063,2.189,6.757-4.909c-1.053-3.242-0.984-6.944-0.033-10.429c1.392-0.376,2.809-0.579,4.209-0.579
		c7.463,0,8.619-3.556,2.581-7.943c-0.394-0.286-0.774-0.596-1.142-0.922c0.368-0.326,0.747-0.636,1.142-0.922
		c6.038-4.387,4.882-7.943-2.581-7.943c-1.344,0-2.702,0.019-4.04,0.01c-1.11-3.654-1.249-7.593-0.136-11.018
		c2.306-7.098-0.719-9.296-6.757-4.909c-6.038,4.387-15.827,4.387-21.865,0c-6.038-4.387-9.063-2.189-6.757,4.909
		c1.113,3.426,0.974,7.364-0.136,11.018c-1.338,0.009-2.696-0.01-4.04-0.01c-7.463,0-8.619,3.556-2.581,7.943
		c0.394,0.286,0.774,0.596,1.142,0.922c-0.368,0.326-0.747,0.636-1.142,0.922C1.517,37.225,2.672,40.781,10.135,40.781z
		 M23.089,31.225c-4.11,0-7.442,3.672-7.442-0.438c0-4.11,3.332-7.442,7.442-7.442c4.11,0,7.442,3.332,7.442,7.442
		C30.531,34.897,27.199,31.225,23.089,31.225z M33.046,30.787c0-4.11,3.332-7.442,7.442-7.442s7.442,3.332,7.442,7.442
		c0,4.11-3.332,0.438-7.442,0.438S33.046,34.897,33.046,30.787z"/>
</g>
</svg>
