<?xml version="1.0" encoding="iso-8859-1"?>
<!-- Generator: Adobe Illustrator 17.0.0, SVG Export Plug-In . SVG Version: 6.00 Build 0)  -->
<!DOCTYPE svg PUBLIC "-//W3C//DTD SVG 1.1//EN" "http://www.w3.org/Graphics/SVG/1.1/DTD/svg11.dtd">
<svg version="1.1" id="Capa_1" xmlns="http://www.w3.org/2000/svg" xmlns:xlink="http://www.w3.org/1999/xlink" x="0px" y="0px"
	 width="64px" height="64px" viewBox="0 0 64 64" style="enable-background:new 0 0 64 64;" xml:space="preserve">
<g>
	<path d="M9,32.352c1.646,0,3.156-0.571,4.353-1.519c3.39,0.955,7.659,1.648,12.423,1.968c3.19,2.803,4.405,6.906-1.146,12.693
		c-6.588,6.869-2.378,11.676,4.268,12.971c8.906,1.735,8.906,1.735,2.794-2.122c-2.004-1.265,0.525-4.29,6.342-7.509
		c12.693-7.022,8.119-13.099,4.484-16.5c2.689-0.349,5.14-0.824,7.263-1.4c1.175,0.886,2.633,1.418,4.218,1.418
		c3.876,0,7.018-3.142,7.018-7.018c0-3.876-3.142-7.018-7.018-7.018c-1.585,0-3.043,0.532-4.218,1.418
		c-4.721-1.281-11.059-2.066-18.032-2.066c-7.155,0-13.64,0.827-18.397,2.167c-1.197-0.949-2.707-1.519-4.353-1.519
		c-3.876,0-7.018,3.142-7.018,7.018C1.982,29.21,5.124,32.352,9,32.352z M54.176,20.759c2.526,0,4.574,2.048,4.574,4.574
		c0,2.526-2.048,4.574-4.574,4.574c-0.373,0-0.663-0.05-0.898-0.134c-0.431-0.154-0.659-0.439-0.766-0.827
		c0.202,0.04,0.409,0.067,0.622,0.067c1.859,0,3.366-1.598,3.366-3.57c0-1.972-1.507-3.57-3.366-3.57
		c-0.229,0-0.453,0.025-0.67,0.072c0.078-0.502,0.303-0.869,0.813-1.052C53.513,20.809,53.803,20.759,54.176,20.759z M23.667,25.833
		c4.889-0.012,9.777-0.154,14.667-0.167c1.29-0.003,1.29,1.997,0,2c-0.556,0.001-1.111,0.011-1.667,0.015v1.152
		c0,0.355-0.158,0.603-0.378,0.762c-0.406,0.295-1.027,0.253-1.372-0.119c-0.146-0.158-0.251-0.365-0.251-0.643v-1.135
		c-2.333,0.026-4.667,0.059-7,0.089v1.045c0,0.005-0.003,0.008-0.003,0.014c-0.016,1.274-1.997,1.271-1.997-0.014v-0.16v-0.863
		c-0.667,0.006-1.333,0.021-2,0.023C22.377,27.837,22.377,25.837,23.667,25.833z M9,20.759c0.463,0,0.808,0.07,1.064,0.198
		c0.362,0.181,0.546,0.479,0.628,0.867c-0.183-0.032-0.367-0.06-0.558-0.06c-1.915,0-3.468,1.647-3.468,3.678
		s1.553,3.678,3.468,3.678c0.168,0,0.33-0.028,0.492-0.053c-0.101,0.278-0.274,0.497-0.562,0.64C9.808,29.837,9.463,29.908,9,29.908
		c-2.526,0-4.574-2.048-4.574-4.574C4.426,22.807,6.474,20.759,9,20.759z"/>
</g>
</svg>
