<?xml version="1.0" encoding="iso-8859-1"?>
<!-- Generator: Adobe Illustrator 17.0.0, SVG Export Plug-In . SVG Version: 6.00 Build 0)  -->
<!DOCTYPE svg PUBLIC "-//W3C//DTD SVG 1.1//EN" "http://www.w3.org/Graphics/SVG/1.1/DTD/svg11.dtd">
<svg version="1.1" id="Capa_1" xmlns="http://www.w3.org/2000/svg" xmlns:xlink="http://www.w3.org/1999/xlink" x="0px" y="0px"
	 width="64px" height="64px" viewBox="0 0 64 64" style="enable-background:new 0 0 64 64;" xml:space="preserve">
<g>
	<path d="M60,54.086V23.458V15.48V8.456h-2.848V5.333H51v3.122H32.283V5.333h-6.116v3.122h-5.685v7.025H3.833v38.606h8.965v3.447
		v3.019v0.823h11.389v-3.842h-6.175v-3.447h9.056v3.447v3.019v0.823h11.389v-3.842h-6.175v-3.447h11.252v3.447v3.019v0.823h11.389
		v-3.842h-6.175v-3.447H60z M57.896,29.129H45.592v-5.672v-6.632h12.304v6.632V29.129z M29.218,23.458v-7.94h13.63v7.94v5.69h-13.63
		V23.458z M36.033,45.732v-1.418v-1.921v-5.992h4.208v5.992h13.447V37.82h4.208v7.913h-0.915h-3.293H36.033z"/>
	<polygon points="30.237,23.458 30.237,27.651 40.3,27.651 40.3,23.458 40.3,17.588 30.237,17.588 	"/>
	<polygon points="46.334,23.458 46.334,27.242 54.152,27.242 54.152,23.458 54.152,19.424 46.334,19.424 	"/>
</g>
</svg>
