<?xml version="1.0" encoding="iso-8859-1"?>
<!-- Generator: Adobe Illustrator 17.0.0, SVG Export Plug-In . SVG Version: 6.00 Build 0)  -->
<!DOCTYPE svg PUBLIC "-//W3C//DTD SVG 1.1//EN" "http://www.w3.org/Graphics/SVG/1.1/DTD/svg11.dtd">
<svg version="1.1" id="Capa_1" xmlns="http://www.w3.org/2000/svg" xmlns:xlink="http://www.w3.org/1999/xlink" x="0px" y="0px"
	 width="64px" height="64px" viewBox="0 0 64 64" style="enable-background:new 0 0 64 64;" xml:space="preserve">
<g>
	<path d="M41.409,55.829c2.507,1.173,5.6,1.119,8.27-0.411c0.575-0.33,1.096-0.714,1.569-1.137c1.972,1.049,4.427,1.096,6.514-0.101
		c3.224-1.849,4.346-5.949,2.506-9.158c-1.671-2.914-5.209-4.084-8.26-2.89c-1.97-2.066-4.919-2.957-7.803-2.424
		c-0.028-0.026-0.054-0.055-0.082-0.081c-0.018,0.036-0.038,0.071-0.057,0.107c-1.752,3.388-4.28,6.207-7.33,8.261
		c-2.915,1.963-6.3,3.22-9.914,3.634c0.134,0.309,0.286,0.614,0.458,0.913C29.977,57.244,36.281,58.699,41.409,55.829z"/>
	<circle cx="31.654" cy="23.142" r="3.41"/>
	<circle cx="25.248" cy="17.842" r="3.41"/>
	<path d="M43.992,18.964l3.115-9.878c0.332-1.053-0.283-1.761-1.37-1.565c-2.635,0.475-7.349,1.385-10.63,2.365
		c-0.221,0.066-0.436,0.132-0.643,0.199c-0.232,0.074-0.453,0.149-0.664,0.224c-0.577-0.288-1.166-0.558-1.774-0.797
		c-2.504-0.981-5.125-1.478-7.791-1.478c-8.859,0-16.673,5.331-19.905,13.583C0.031,32.589,5.461,45.014,16.434,49.313
		c2.504,0.981,5.126,1.479,7.791,1.479c0.757,0,1.503-0.053,2.243-0.129c3.861-0.399,7.449-1.815,10.459-4.04
		c2.334-1.725,4.325-3.924,5.813-6.518c0.21-0.365,0.404-0.742,0.593-1.123c0.287-0.576,0.558-1.164,0.797-1.773
		c2.083-5.315,1.971-11.124-0.315-16.355c-0.077-0.177-0.174-0.341-0.255-0.515l0.227-0.72L43.992,18.964z M18.013,11.889
		c2.037-2.407,8.526-0.265,14.494,4.785c5.967,5.05,9.153,11.095,7.116,13.503c-2.037,2.407-8.526,0.265-14.494-4.785
		C19.162,20.341,15.976,14.296,18.013,11.889z M31.923,43.797c-1.037,2.647-3.336,3.969-5.86,4.072
		c-0.529,0.022-1.065-0.017-1.604-0.102l2.141-5.465l-5.225-2.047l-2.326,5.938c-2.84-1.013-5.347-2.35-7.587-4.993
		c-1.305-1.539-2.32-3.094-3.089-4.755l5.046-4.218l-3.599-4.306l-3.105,2.595c-0.978-8.332,11.93-10.307,13.058-1.914
		c0.051,0.377,0.122,0.719,0.203,1.046l-4.332,4.444l4.018,3.917l4.043-4.148c1.296,0.541,2.826,0.896,4.48,1.379
		c1.679,0.491,2.893,1.787,3.562,3.346C32.456,40.24,32.553,42.189,31.923,43.797z"/>
</g>
</svg>
