<?xml version="1.0" encoding="iso-8859-1"?>
<!-- Generator: Adobe Illustrator 17.0.0, SVG Export Plug-In . SVG Version: 6.00 Build 0)  -->
<!DOCTYPE svg PUBLIC "-//W3C//DTD SVG 1.1//EN" "http://www.w3.org/Graphics/SVG/1.1/DTD/svg11.dtd">
<svg version="1.1" id="Capa_1" xmlns="http://www.w3.org/2000/svg" xmlns:xlink="http://www.w3.org/1999/xlink" x="0px" y="0px"
	 width="64px" height="64px" viewBox="0 0 64 64" style="enable-background:new 0 0 64 64;" xml:space="preserve">
<g>
	<path d="M57.433,41.733l0.39-0.525l0.01,0.001l0.002-0.018l1.308-1.759l-0.514-0.382l1.29-2.046l-1.05-0.662l0.057-0.134
		l0.461-0.043l-0.08-0.857l1.472-3.478l-0.689-0.292l0.558-1.68l-0.721-0.24l0.458-1.898l-0.931-0.225l-0.198-0.483l0.107-1.234
		l0.113-0.06l-0.092-0.172l0.151-1.746l-1.137-0.098l-0.024-0.394l0.441-0.299l-0.505-0.745L58.2,20.506L57.16,20.57l-0.26-0.383
		l0.609-0.537l-1.531-1.738l-0.296-0.97l0.254-0.287l-0.468-0.414l-0.408-1.339l-0.767,0.234l-0.205-0.481l0.283-0.402l-0.649-0.456
		l-0.343-0.804l-0.499,0.212l-0.393-0.276l-0.458-0.82l0.219-0.415l-0.64-0.338l-0.226-0.405l-0.263,0.147l-0.811-0.428l0.277-0.673
		l-1.564-0.644l-0.661-0.867l0.074-0.252l-1.805-0.528l-0.107-0.113l0.109-0.513l-2.881-0.612l0.082-0.839l-1.761-0.173
		l-0.464-0.338L41.41,5.39l-0.16-0.016v-0.75h-2.106l-0.563-0.312l-0.172,0.312h-0.55l-0.406-0.178l-0.13-0.87l-2.037,0.305
		l-0.158-0.666L32.292,3.89l-0.325-0.882l-1.999,0.736l-0.296-0.635l-2.945,1.374l-0.5-0.801l-2.365,1.475l-0.45-0.589l-3.274,2.501
		l-1.686,0.492l0.174,0.596l-0.991,0.425l-1.028-0.764L15.65,9.105l-0.569-0.358l-1.861,2.952l-1.249-0.529l-0.931,2.2l-0.688-0.229
		l-0.768,2.311l-0.719-0.174l-0.979,4.054l-1.156-0.1l-0.291,3.364l-0.021,0.035l0.018,0.011l-0.057,0.658l-0.213,0.39L5.3,23.744
		l0.188,3.08l-0.396,0.993l0.468,0.186l0.074,1.205l-0.167,0.804l-1.106,0.337l0.617,2.024l-0.051,0.247l0.135,0.028l0.249,0.817
		l-0.691,0.294l0.569,1.336L5.166,35.29l0.111,0.012l0.485,1.138l-0.645,0.36l0.685,1.225v0.349h0.195l0.439,0.786l0.106,1.134
		l-0.363,0.277L7.3,42.043l0.216,1.241l0.179-0.031l-0.208,0.196l1.279,1.354L9.1,45.9c-0.596,0.633-1.051,1.402-1.276,2.327
		c-0.447,1.839-0.401,3.318-1.51,4.958c-0.969,1.433-2.269,2.643-3.276,4.058c-1.124,1.58,1.479,3.076,2.59,1.514
		c1.429-2.009,3.301-3.64,4.321-5.922c0.585-1.31,0.578-2.989,1.117-4.246l0.13-0.053l0.611,0.445l0.967,1.801l0.161-0.086
		l0.985,0.545l0.894,1.32c-0.232,0.893-0.306,1.801-0.368,2.738c-0.182,2.725-1.664,3.584-3.704,5.073
		c-1.546,1.128-0.051,3.733,1.514,2.59c1.685-1.23,4.382-2.721,4.896-4.948c0.282-1.219,0.252-2.452,0.4-3.54l0.188,0.213
		l0.285-0.251l0.969,0.302l1.818,1.609l0.391-0.442l0.369,0.076l2.304,1.621l0.49-0.696l3.132,1.654l0.326-0.618l2.587,1.065
		l0.302-0.734l2.849,0.833l0.17-0.583l1.882,0.4l0.176-0.826l2.873,0.282l0.074-0.751h2.51V56.58l0.567-0.085l0.125,0.18
		l0.367-0.254l2.868-0.43l-0.099-0.663l2.295-0.545l-0.212-0.891l3.123-1.15l-0.24-0.652l0.432-0.202
		c1.783,3.306,1.758,8.147,5.434,10.24c1.684,0.959,3.195-1.634,1.514-2.59c-2.914-1.659-2.461-5.479-3.762-8.143
		c-0.297-0.607-0.639-1.183-1.017-1.725l1.628-1.015L53.864,48l1.724-1.317l-0.631-0.826l0.647-1.623
		c2.507,1.321,2.871,5.423,3.616,8.165c0.507,1.865,3.401,1.072,2.893-0.798C61.16,48.094,60.314,43.647,57.433,41.733z
		 M11.852,31.875c0.153-0.255,0.324-0.502,0.491-0.75c0.074-0.11,0.141-0.224,0.218-0.333c0.148-0.209,0.31-0.41,0.467-0.614
		c0.175-0.227,0.35-0.453,0.537-0.673c0.127-0.15,0.261-0.295,0.393-0.441c0.022-0.025,0.044-0.05,0.067-0.075
		c0.329-0.36,0.672-0.711,1.031-1.051c0.112-0.106,0.22-0.215,0.335-0.319c0.171-0.154,0.352-0.3,0.529-0.449
		c0.218-0.184,0.436-0.368,0.663-0.544c0.22-0.171,0.447-0.336,0.675-0.5c0.086-0.062,0.167-0.127,0.254-0.188
		c0.218-0.151,0.446-0.293,0.671-0.438c0.11-0.071,0.218-0.143,0.329-0.212c0.267-0.165,0.54-0.323,0.815-0.479
		c-0.111,0.228-0.231,0.45-0.33,0.685c-0.04,0.094-0.069,0.193-0.107,0.288c-0.021,0.052-0.038,0.106-0.058,0.159
		c-0.081,0.209-0.16,0.418-0.231,0.631c-0.038,0.113-0.081,0.224-0.116,0.338c-0.083,0.271-0.146,0.55-0.213,0.828
		c-0.019,0.078-0.042,0.155-0.06,0.234c-0.017,0.075-0.041,0.146-0.057,0.221c-0.09,0.433-0.155,0.874-0.205,1.321
		c-0.005,0.044-0.015,0.086-0.02,0.13c-0.002,0.019-0.002,0.038-0.004,0.057c-0.006,0.06-0.004,0.122-0.009,0.182
		c-0.034,0.396-0.06,0.795-0.061,1.199c0,0.015-0.002,0.03-0.002,0.045c0,0.177,0.02,0.348,0.026,0.523
		c0.004,0.12,0.011,0.239,0.018,0.359c0.009,0.153,0.009,0.308,0.023,0.459c0.015,0.164,0.04,0.324,0.061,0.486
		c0.022,0.171,0.05,0.34,0.078,0.51c0.007,0.044,0.013,0.089,0.02,0.133c0.103,0.592,0.23,1.175,0.403,1.741
		c0,0.001,0,0.001,0,0.002c0.01,0.033,0.017,0.066,0.028,0.099c0.097,0.311,0.217,0.611,0.335,0.913
		c0.033,0.084,0.059,0.171,0.093,0.254c0.025,0.061,0.046,0.123,0.072,0.183c0.009,0.022,0.021,0.042,0.031,0.064
		c0.163,0.377,0.34,0.747,0.534,1.106c0.039,0.072,0.082,0.141,0.122,0.212c0.025,0.044,0.053,0.086,0.079,0.129
		c0.015,0.026,0.032,0.052,0.048,0.078c0.168,0.288,0.335,0.577,0.522,0.852c0.096,0.141,0.206,0.272,0.306,0.409
		c-0.177-0.086-0.359-0.166-0.533-0.256c-0.246-0.127-0.482-0.266-0.721-0.4c-0.192-0.108-0.39-0.21-0.578-0.323
		c-0.086-0.052-0.168-0.108-0.253-0.161c-0.064-0.04-0.126-0.082-0.19-0.122c-0.231-0.145-0.462-0.29-0.686-0.442
		c-0.175-0.119-0.342-0.244-0.512-0.367c-0.071-0.051-0.14-0.104-0.21-0.156c-0.4-0.297-0.786-0.605-1.159-0.924
		c-0.096-0.082-0.195-0.162-0.29-0.246c-0.001-0.001-0.001-0.001-0.002-0.002c-0.068-0.061-0.141-0.118-0.208-0.18
		c-0.489-0.446-0.943-0.918-1.377-1.401c-0.063-0.07-0.126-0.14-0.187-0.21c-0.025-0.029-0.052-0.058-0.077-0.087
		c-0.39-0.452-0.763-0.915-1.102-1.396c-0.055-0.078-0.103-0.16-0.156-0.239c-0.083-0.122-0.161-0.245-0.241-0.369
		C12.064,32.196,11.951,32.039,11.852,31.875z M34.946,40.19c-0.092,0.027-0.187,0.048-0.28,0.072
		c-0.061,0.016-0.122,0.033-0.184,0.047c-0.182,0.043-0.366,0.081-0.552,0.114c-0.076,0.013-0.154,0.024-0.23,0.035
		c-0.049,0.007-0.097,0.016-0.146,0.022c-0.203,0.027-0.407,0.047-0.614,0.061c-0.212,0.014-0.423,0.032-0.639,0.032
		c-0.054,0-0.107-0.007-0.16-0.008c-0.102-0.002-0.201-0.01-0.302-0.015c-0.153-0.008-0.308-0.009-0.459-0.023
		c-0.162-0.016-0.319-0.045-0.478-0.069c-0.063-0.009-0.125-0.018-0.187-0.029c-0.102-0.017-0.207-0.026-0.308-0.047
		c-0.023-0.005-0.046-0.012-0.069-0.017c-0.186-0.04-0.367-0.091-0.549-0.142c-0.045-0.013-0.092-0.022-0.137-0.035
		c-0.053-0.015-0.108-0.025-0.16-0.042c-0.136-0.042-0.265-0.098-0.398-0.146c-0.129-0.047-0.261-0.09-0.387-0.142
		c-0.067-0.028-0.133-0.058-0.2-0.087c-0.069-0.03-0.135-0.066-0.203-0.098c-0.138-0.065-0.278-0.128-0.412-0.199
		c-0.05-0.026-0.1-0.052-0.15-0.08c-0.004-0.003-0.009-0.005-0.013-0.008c-0.132-0.073-0.259-0.156-0.387-0.235
		c-0.16-0.099-0.318-0.2-0.471-0.308c-0.043-0.031-0.084-0.064-0.127-0.095c-0.034-0.025-0.067-0.05-0.1-0.075
		c-0.132-0.099-0.266-0.195-0.392-0.3c-0.07-0.059-0.135-0.124-0.203-0.185c-0.101-0.089-0.202-0.178-0.299-0.271
		c-0.106-0.102-0.207-0.208-0.308-0.314c-0.012-0.013-0.024-0.027-0.036-0.04c-0.062-0.067-0.124-0.134-0.185-0.203
		c-0.147-0.167-0.288-0.339-0.423-0.516c-0.032-0.042-0.063-0.083-0.094-0.125c-0.074-0.1-0.153-0.195-0.222-0.297
		c-0.024-0.036-0.045-0.073-0.069-0.109c-0.125-0.19-0.243-0.385-0.355-0.584c-0.026-0.047-0.055-0.091-0.08-0.139
		c-0.054-0.101-0.099-0.207-0.15-0.31c-0.002-0.003-0.003-0.007-0.005-0.01c-0.073-0.148-0.149-0.293-0.214-0.444
		c-0.017-0.039-0.031-0.08-0.047-0.12c-0.086-0.208-0.162-0.421-0.233-0.637c-0.019-0.057-0.041-0.112-0.059-0.169
		c-0.002-0.007-0.003-0.014-0.005-0.021c0,0,0-0.001,0-0.001c-0.105-0.343-0.185-0.696-0.25-1.054
		c-0.005-0.028-0.008-0.056-0.013-0.084c-0.012-0.071-0.022-0.142-0.033-0.213c-0.026-0.174-0.055-0.348-0.071-0.525
		c-0.009-0.099-0.009-0.2-0.015-0.3c-0.008-0.138-0.019-0.276-0.021-0.415c-0.001-0.054-0.008-0.107-0.008-0.161
		c0-0.1,0.012-0.196,0.015-0.295c0.005-0.174,0.012-0.347,0.026-0.518c0.007-0.081,0.013-0.161,0.021-0.241
		c0.029-0.255,0.067-0.507,0.116-0.756c0.007-0.036,0.011-0.072,0.018-0.107c0.021-0.101,0.052-0.198,0.077-0.297
		c0.025-0.104,0.052-0.208,0.08-0.311c0.042-0.152,0.086-0.303,0.135-0.452c0.058-0.174,0.121-0.346,0.189-0.516
		c0.025-0.062,0.044-0.127,0.07-0.189c0.016-0.039,0.038-0.075,0.055-0.113c0.02-0.046,0.044-0.09,0.065-0.135
		c0.092-0.2,0.183-0.4,0.288-0.592c0.001-0.002,0.002-0.003,0.003-0.005c0.077-0.14,0.165-0.274,0.249-0.41
		c0.019-0.031,0.038-0.063,0.057-0.094c0.007-0.011,0.013-0.022,0.02-0.033c0.123-0.193,0.255-0.38,0.392-0.564
		c0.042-0.057,0.084-0.114,0.127-0.17c0.074-0.095,0.146-0.191,0.223-0.282c0.174-0.206,0.353-0.407,0.543-0.598
		c0.041-0.041,0.086-0.076,0.127-0.116c0.26-0.251,0.536-0.483,0.823-0.703c0.035-0.027,0.07-0.053,0.105-0.079
		c0.085-0.063,0.168-0.13,0.255-0.191c0.051-0.035,0.102-0.071,0.154-0.106c0.072-0.048,0.148-0.089,0.221-0.134
		c0.123-0.077,0.245-0.154,0.371-0.225c0.177-0.1,0.361-0.19,0.545-0.278c0.029-0.014,0.058-0.028,0.087-0.042
		c0.076-0.036,0.15-0.076,0.227-0.109c0.013-0.006,0.025-0.013,0.038-0.018c0.127-0.055,0.259-0.099,0.389-0.149
		c0.025-0.009,0.049-0.018,0.074-0.027c0.031-0.012,0.063-0.023,0.094-0.034c0.173-0.062,0.345-0.122,0.522-0.174
		c0.153-0.045,0.308-0.083,0.464-0.12c0.062-0.015,0.121-0.034,0.184-0.047c0.157-0.034,0.317-0.057,0.477-0.083
		c0.04-0.007,0.081-0.013,0.122-0.019c0.049-0.007,0.097-0.016,0.146-0.022c0.37-0.049,0.745-0.081,1.126-0.087
		c0.042-0.001,0.084-0.006,0.126-0.006c0.152,0,0.3,0.016,0.451,0.023c0.055,0.003,0.11,0.005,0.165,0.008
		c0.102,0.007,0.205,0.006,0.306,0.016c0.33,0.032,0.655,0.079,0.974,0.145c0.023,0.005,0.046,0.012,0.069,0.017
		c0.092,0.02,0.182,0.048,0.273,0.07c0.138,0.034,0.277,0.067,0.413,0.107c0.053,0.015,0.108,0.025,0.16,0.042
		c0.268,0.084,0.529,0.182,0.786,0.288c0.067,0.028,0.133,0.058,0.2,0.087c0.209,0.092,0.414,0.19,0.615,0.297
		c0.018,0.01,0.038,0.017,0.057,0.027c0.036,0.019,0.07,0.04,0.106,0.06c0.297,0.165,0.582,0.348,0.858,0.543
		c0.043,0.031,0.084,0.064,0.127,0.095c0.014,0.01,0.028,0.021,0.042,0.032c0.225,0.167,0.443,0.342,0.652,0.527
		c0.142,0.125,0.286,0.248,0.42,0.382c0.065,0.065,0.123,0.137,0.186,0.204c0.075,0.079,0.148,0.161,0.221,0.243
		c0.081,0.092,0.166,0.181,0.244,0.277c0.063,0.077,0.118,0.16,0.179,0.239c0.107,0.14,0.217,0.277,0.316,0.423
		c0.152,0.224,0.291,0.456,0.424,0.693c0.026,0.047,0.055,0.091,0.08,0.139c0.05,0.093,0.091,0.191,0.138,0.286
		c0.013,0.026,0.026,0.053,0.038,0.079c-0.007-0.005-0.015-0.009-0.023-0.014c-0.001-0.001-0.003-0.002-0.004-0.002
		c-0.122-0.08-0.247-0.157-0.375-0.228c-0.01-0.005-0.019-0.011-0.029-0.016c-0.046-0.025-0.094-0.044-0.14-0.068
		c-0.278-0.14-0.568-0.261-0.871-0.353c-0.195-0.059-0.396-0.105-0.599-0.142c-0.252-0.046-0.511-0.073-0.774-0.083
		c-0.071-0.003-0.141-0.011-0.214-0.011c-0.057,0-0.111,0.007-0.167,0.008c-0.33,0.01-0.655,0.045-0.968,0.111
		c-0.342,0.072-0.673,0.175-0.989,0.308c-0.06,0.025-0.117,0.057-0.176,0.084c-0.363,0.169-0.703,0.375-1.017,0.615
		c-0.054,0.041-0.11,0.079-0.163,0.122c-0.211,0.174-0.405,0.368-0.587,0.572c-0.053,0.059-0.11,0.116-0.16,0.178
		c-0.211,0.257-0.398,0.534-0.56,0.827c-0.035,0.064-0.066,0.131-0.099,0.197c-0.128,0.256-0.241,0.521-0.329,0.798
		c-0.014,0.043-0.024,0.088-0.036,0.132l-0.17,0.832c-0.001,0.01-0.003,0.02-0.005,0.031c-0.004,0.036-0.012,0.071-0.015,0.107
		c0,0.002,0,0.005,0,0.007c-0.001,0.008,0,0.017-0.001,0.025c0,0.001,0,0.003,0,0.004c0,0.004,0,0.008-0.001,0.011
		c0,0.001,0,0.002,0,0.002c0,0.003,0,0.007-0.001,0.011c0,0,0,0.001,0,0.001c0,0.002,0,0.004,0,0.006c0,0.002,0,0.003,0,0.005
		c0,0.001,0,0.001,0,0.002c0,0.001,0,0.002,0,0.003c0,0,0,0.001,0,0.002c0,0.001,0,0.002,0,0.003l0,0.001c0,0.001,0,0.002,0,0.003v0
		c0,0.001,0,0.002,0,0.003v0c0,0.001,0,0.002,0,0.003c0,0.001,0,0.001,0,0.002c0,0,0,0.001,0,0.001l0,0.001c0,0.001,0,0.001,0,0.002
		c0,0,0,0,0,0.001c0,0,0,0.001,0,0.002c0,0,0,0,0,0.001c0,0,0,0.001,0,0.002c0,0,0,0.001,0,0.001c0,0,0,0,0,0.001
		c0,0,0,0.002,0,0.003c0,0,0,0.001,0,0.001v0c0,0.001,0,0.002,0,0.002c0,0.002,0,0.004,0,0.005c0,0.002,0,0.004,0,0.006
		c0,0.001,0,0.001,0,0.002c0,0.001,0,0.003,0,0.004c0,0.003,0,0.007,0,0.01c0,0.001,0,0.002,0,0.004c0,0.002,0,0.005,0,0.007
		c0,0.004,0,0.008-0.001,0.012c0,0.004,0,0.009-0.001,0.013c-0.001,0.012-0.001,0.024-0.002,0.035c0,0.003,0,0.007,0,0.01
		c-0.006,0.108-0.016,0.216-0.016,0.326c0,0.618,0.107,1.21,0.296,1.764c0.019,0.055,0.039,0.109,0.06,0.164
		c0.113,0.299,0.251,0.586,0.412,0.857c0.096,0.162,0.201,0.319,0.313,0.47c0.154,0.208,0.319,0.408,0.501,0.591
		c0.136,0.137,0.279,0.268,0.429,0.39c0.087,0.071,0.178,0.136,0.269,0.201c0.36,0.259,0.751,0.476,1.168,0.642
		c0.16,0.064,0.324,0.12,0.491,0.169c0.166,0.048,0.336,0.09,0.508,0.122c0.329,0.062,0.668,0.098,1.015,0.099
		c0.002,0,0.004,0,0.007,0c0.043,0,0.084-0.005,0.127-0.006c0.076-0.002,0.152-0.007,0.227-0.011
		c0.025-0.002,0.05-0.002,0.075-0.004c0.053-0.004,0.107-0.006,0.16-0.011c0.033-0.004,0.065-0.011,0.097-0.015
		c0.158-0.02,0.315-0.044,0.469-0.077c0.224-0.048,0.441-0.113,0.654-0.188c0.06-0.021,0.119-0.042,0.177-0.065
		c0.088-0.034,0.174-0.07,0.26-0.109c-0.047,0.066-0.097,0.129-0.145,0.194c-0.01,0.014-0.02,0.027-0.031,0.041
		c-0.124,0.165-0.25,0.327-0.385,0.483c-0.06,0.069-0.123,0.135-0.184,0.203c-0.098,0.108-0.191,0.221-0.294,0.324
		c-0.007,0.007-0.016,0.014-0.023,0.021c-0.096,0.096-0.201,0.182-0.301,0.274c-0.102,0.093-0.2,0.189-0.305,0.277
		c-0.104,0.087-0.214,0.165-0.322,0.247c0,0-0.001,0.001-0.001,0.001c-0.118,0.091-0.236,0.183-0.358,0.268
		c-0.021,0.014-0.039,0.031-0.06,0.045c-0.102,0.069-0.21,0.13-0.315,0.195c-0.081,0.05-0.162,0.1-0.244,0.148
		c-0.153,0.089-0.307,0.175-0.465,0.256c-0.097,0.05-0.196,0.096-0.294,0.142c-0.089,0.042-0.175,0.089-0.265,0.128
		c-0.141,0.061-0.286,0.11-0.43,0.164c-0.011,0.004-0.022,0.008-0.033,0.012c-0.132,0.049-0.263,0.103-0.398,0.146
		c-0.058,0.018-0.116,0.034-0.174,0.051C34.976,40.183,34.961,40.186,34.946,40.19z M52.75,31.875
		c-0.088,0.147-0.19,0.288-0.283,0.432c-0.114,0.178-0.227,0.357-0.348,0.531c-0.111,0.161-0.229,0.317-0.346,0.475
		c-0.068,0.092-0.14,0.182-0.21,0.273c-0.035,0.045-0.068,0.09-0.104,0.135c-0.315,0.4-0.646,0.791-0.998,1.169
		c-0.158,0.17-0.321,0.337-0.486,0.502c-0.212,0.212-0.423,0.425-0.646,0.629c-0.206,0.189-0.424,0.368-0.639,0.55
		c-0.168,0.142-0.329,0.289-0.502,0.426c-0.105,0.083-0.218,0.159-0.324,0.24c-0.025,0.019-0.051,0.038-0.077,0.057
		c-0.109,0.083-0.22,0.164-0.331,0.245c-0.027,0.019-0.052,0.039-0.079,0.059c-0.373,0.269-0.757,0.527-1.152,0.775
		c-0.027,0.017-0.053,0.035-0.08,0.051c-0.074,0.046-0.145,0.096-0.22,0.142c-0.233,0.142-0.474,0.274-0.714,0.409
		c-0.022,0.012-0.044,0.025-0.066,0.037c-0.058,0.032-0.116,0.065-0.174,0.097c-0.334,0.182-0.675,0.357-1.021,0.525
		c0.195-0.266,0.381-0.538,0.558-0.817c0.03-0.047,0.058-0.096,0.087-0.143c0.062-0.1,0.124-0.199,0.183-0.301
		c0.043-0.073,0.091-0.143,0.132-0.217c0.021-0.037,0.045-0.071,0.066-0.108c0.101-0.184,0.186-0.378,0.279-0.567
		c0.078-0.157,0.157-0.314,0.229-0.474c0.038-0.085,0.085-0.165,0.121-0.251c0.013-0.031,0.023-0.063,0.036-0.094
		c0.026-0.063,0.046-0.13,0.071-0.194c0.104-0.26,0.201-0.523,0.29-0.79c0.02-0.061,0.046-0.119,0.066-0.18
		c0.027-0.086,0.05-0.174,0.076-0.261c0.067-0.225,0.12-0.455,0.176-0.684c0.003-0.014,0.007-0.027,0.01-0.041
		c0.034-0.142,0.079-0.281,0.109-0.425c0.002-0.01,0.006-0.02,0.008-0.03c0.09-0.433,0.155-0.875,0.205-1.321
		c0.006-0.051,0.017-0.1,0.022-0.151c0.007-0.072,0.005-0.146,0.011-0.218c0.034-0.391,0.058-0.785,0.06-1.184
		c0-0.02,0.003-0.04,0.003-0.06c0-0.298-0.027-0.589-0.045-0.882c-0.001-0.019-0.002-0.038-0.003-0.057
		c-0.009-0.133-0.008-0.269-0.02-0.402c-0.017-0.181-0.045-0.357-0.068-0.536c-0.026-0.199-0.057-0.397-0.091-0.593
		c-0.006-0.034-0.01-0.069-0.016-0.104c-0.061-0.336-0.137-0.665-0.221-0.992c-0.055-0.215-0.102-0.434-0.166-0.645l0-0.002
		c-0.064-0.211-0.145-0.413-0.219-0.62c-0.077-0.216-0.15-0.434-0.237-0.646c-0.025-0.061-0.046-0.123-0.072-0.183
		c-0.011-0.027-0.026-0.052-0.038-0.078c-0.079-0.181-0.17-0.354-0.256-0.531c-0.008-0.015-0.015-0.031-0.022-0.046
		c0.012,0.007,0.024,0.013,0.036,0.02c0.251,0.143,0.501,0.287,0.745,0.437c0.071,0.044,0.139,0.09,0.209,0.135
		c0.061,0.038,0.121,0.078,0.181,0.117c0.326,0.21,0.644,0.426,0.955,0.651c0.024,0.017,0.046,0.035,0.07,0.052
		c0.09,0.066,0.18,0.132,0.269,0.199c0.001,0,0.001,0.001,0.002,0.001c0.375,0.282,0.737,0.574,1.088,0.875
		c0.304,0.262,0.598,0.53,0.883,0.806c0.218,0.21,0.436,0.42,0.642,0.639c0.2,0.212,0.389,0.43,0.578,0.648
		c0.161,0.187,0.318,0.376,0.47,0.568c0.017,0.022,0.034,0.044,0.051,0.066c0.283,0.359,0.551,0.727,0.804,1.103
		c0.102,0.151,0.202,0.303,0.299,0.457C52.62,31.68,52.69,31.775,52.75,31.875z"/>
</g>
</svg>
