<?xml version="1.0" encoding="iso-8859-1"?>
<!-- Generator: Adobe Illustrator 17.0.0, SVG Export Plug-In . SVG Version: 6.00 Build 0)  -->
<!DOCTYPE svg PUBLIC "-//W3C//DTD SVG 1.1//EN" "http://www.w3.org/Graphics/SVG/1.1/DTD/svg11.dtd">
<svg version="1.1" id="Capa_1" xmlns="http://www.w3.org/2000/svg" xmlns:xlink="http://www.w3.org/1999/xlink" x="0px" y="0px"
	 width="64px" height="64px" viewBox="0 0 64 64" style="enable-background:new 0 0 64 64;" xml:space="preserve">
<g>
	<path d="M12.594,51.269c-0.052,0.91-0.171,1.793-0.398,2.699c-0.175,0.7-0.074,2.711-0.684,3.135
		c-1.258,0.873-3.811,0.211-5.262,0.271c-2.57,0.107-2.58,4.107,0,4c2.505-0.104,5.358,0.518,7.564-1.014
		c1.431-0.993,1.831-2.665,2.066-4.293c0.091-0.633,0.198-1.252,0.305-1.868c4.621,3.183,10.218,5.051,16.253,5.051
		c6.005,0,11.577-1.848,16.184-5.002c0.002,0.342,0,0.684,0.02,1.027c0.096,1.604,0.932,2.825,2.31,3.606
		c2.354,1.335,5.342,0.875,7.923,0.994c2.58,0.119,2.568-3.881,0-4c-1.69-0.078-3.404,0.111-5.076-0.21
		c-1.182-0.227-1.21-0.427-1.175-1.59c0.032-1.08,0.078-2.134,0.067-3.198c5.209-5.194,8.434-12.378,8.434-20.315
		c0-5.833-1.745-11.255-4.735-15.784c0.281-0.314,0.471-0.736,0.485-1.279c0.073-2.735,2.104-6.631-1.799-7.797
		c-1.523-0.455-3.029-0.32-4.584-0.131c-1.168,0.141-2.352,0.211-3.537,0.251c-4.26-2.505-9.219-3.948-14.518-3.948
		c-4.999,0-9.698,1.281-13.791,3.53c-3.1-0.47-6.203-1.016-9.303-0.208C8.488,5.419,7.87,6.245,7.875,7.125
		c0.014,2.229,1.236,4.187,1.25,6.375c0.001,0.11,0.018,0.208,0.032,0.308C5.759,18.523,3.75,24.307,3.75,30.562
		C3.75,38.704,7.147,46.047,12.594,51.269z M40.045,9.984c1.374,0,2.487,1.114,2.487,2.487s-1.114,2.488-2.487,2.488
		c-1.374,0-2.488-1.114-2.488-2.488S38.671,9.984,40.045,9.984z M22.416,9.984c1.374,0,2.488,1.114,2.488,2.487
		s-1.114,2.488-2.488,2.488c-1.374,0-2.487-1.114-2.487-2.488S21.042,9.984,22.416,9.984z M13.347,18.786l4.06,16.818l12.835-16.3
		c0.629,0.019,1.262,0.033,1.903,0.033c1.261,0,2.499-0.042,3.709-0.108l8.397,13.363l8.23-13.351
		c2.748,1.102,4.362,3.598,4.362,8.802c0,9.975-5.917,18.563-14.431,22.461L32.437,39l-7.752,12.592
		C14.691,48.429,7.447,39.083,7.447,28.043C7.447,21.933,9.67,19.555,13.347,18.786z"/>
</g>
</svg>
