<?xml version="1.0" encoding="iso-8859-1"?>
<!-- Generator: Adobe Illustrator 17.0.0, SVG Export Plug-In . SVG Version: 6.00 Build 0)  -->
<!DOCTYPE svg PUBLIC "-//W3C//DTD SVG 1.1//EN" "http://www.w3.org/Graphics/SVG/1.1/DTD/svg11.dtd">
<svg version="1.1" id="Capa_1" xmlns="http://www.w3.org/2000/svg" xmlns:xlink="http://www.w3.org/1999/xlink" x="0px" y="0px"
	 width="64px" height="64px" viewBox="0 0 64 64" style="enable-background:new 0 0 64 64;" xml:space="preserve">
<g>
	<path d="M47.612,2.627c-5.574-0.642-11.072,4.96-14.196,13.526C29.778,7.047,23.424,1.205,17.335,2.259
		C9.514,3.614,5.099,15.826,7.473,29.536c0.447,2.583,1.104,5.034,1.927,7.304c-0.046,0.117-0.098,0.227-0.132,0.357
		c-1.407,5.417-0.717,10.949-0.662,16.468c0.037,3.619,5.651,3.622,5.615,0c-0.027-2.708-0.255-5.457-0.261-8.187
		c0.801,1.066,1.647,2.02,2.526,2.849c0.011,0.011,0.022,0.021,0.033,0.032c0.082,0.077,0.164,0.151,0.246,0.225
		c2.106,2.045,4.743,3.695,7.726,4.824c0.085,0.641,0.14,1.273,0.048,1.872c-0.065,0.05-0.213,0.148-0.514,0.182
		c-0.516,0.06-1.515,0.024-1.76-0.013c-1.512-0.228-3.012,0.356-3.453,1.961c-0.369,1.341,0.445,3.225,1.961,3.453
		c2.607,0.393,5.452,0.413,7.583-1.382c1.587-1.337,1.759-2.971,1.688-4.687c1.183,0.162,2.387,0.274,3.627,0.274
		c0.238,0,0.47-0.015,0.706-0.021c0,0.088-0.006,0.175-0.003,0.264c0.051,1.451,0.667,2.698,1.671,3.722
		c2.056,2.098,5.244,1.958,7.933,1.931c3.619-0.036,3.622-5.651,0-5.615c-1.02,0.01-3.084,0.416-3.963-0.286
		c-0.023-0.019-0.029,0.045-0.03,0.112c-0.016-0.273,0.005-0.552,0.023-0.821c0.001-0.02,0.002-0.04,0.004-0.06
		c1.931-0.482,3.754-1.173,5.428-2.043c1.902-0.669,3.733-2.019,5.395-3.903c0.747-0.751,1.404-1.562,2.003-2.406
		c0.058,2.574,0.113,5.148,0.123,7.723c0.013,3.62,5.628,3.621,5.615,0c-0.021-5.71-0.261-11.415-0.281-17.125
		c-0.003-0.896-0.351-1.569-0.871-2.022c0.401-1.695,0.716-3.464,0.926-5.293C59.945,15.402,55.136,3.494,47.612,2.627z
		 M16.357,32.352c-2.697,0-4.884-2.109-4.884-4.711s2.187-4.711,4.884-4.711c1.131,0,2.158,0.386,2.986,1.008
		c-1.714,0.427-2.986,1.916-2.986,3.703c0,1.787,1.272,3.276,2.986,3.703C18.515,31.966,17.487,32.352,16.357,32.352z
		 M43.649,42.163c-1.686-3.84-5.747-2.634-9.174-2.908c-4.006-0.32-7.552-0.696-10.64,2.407c-1.534,1.541-3.916-0.841-2.382-2.382
		c4.606-4.628,9.521-3.218,15.449-3.26c4.312-0.031,7.729,0.056,9.655,4.443C47.422,42.432,44.52,44.148,43.649,42.163z
		 M50.642,33.063c-1.548,0-2.953-0.607-4.007-1.592c0.028,0.001,0.054,0.008,0.082,0.008c2.198,0,3.979-1.718,3.979-3.838
		s-1.781-3.838-3.979-3.838c-0.391,0-0.761,0.071-1.118,0.173c1.038-1.72,2.906-2.872,5.044-2.872c3.265,0,5.912,2.677,5.912,5.98
		C56.554,30.386,53.907,33.063,50.642,33.063z"/>
</g>
</svg>
