<?xml version="1.0" encoding="iso-8859-1"?>
<!-- Generator: Adobe Illustrator 17.0.0, SVG Export Plug-In . SVG Version: 6.00 Build 0)  -->
<!DOCTYPE svg PUBLIC "-//W3C//DTD SVG 1.1//EN" "http://www.w3.org/Graphics/SVG/1.1/DTD/svg11.dtd">
<svg version="1.1" id="Capa_1" xmlns="http://www.w3.org/2000/svg" xmlns:xlink="http://www.w3.org/1999/xlink" x="0px" y="0px"
	 width="64px" height="64px" viewBox="0 0 64 64" style="enable-background:new 0 0 64 64;" xml:space="preserve">
<g>
	<path d="M37.371,3.456c-11.785,0-21.616,7.053-23.88,16.425c-1.653,3.667-2.704,9.137-2.704,15.257c0,3.188,0.293,6.187,0.8,8.86
		c-1.081,0.185-2.155,0.421-3.216,0.682c-1.878,0.461-1.374,5.532,0.505,5.071c1.026-0.252,2.349-2.661,3.389-2.833
		c0.244,0.873,0.508,1.705,0.802,2.462c0.003,0.049,0,0.095,0.007,0.145c0.502,3.346-3.369,10.211,1.427,11.101
		c1.891,0.351,5.205-2.387,3.305-2.739c-1.141-0.212-1.729-2.786-1.763-3.757c0.746,0.64,1.542,0.997,2.369,0.997
		c0.777,0,1.527-0.309,2.234-0.876c0.506,0.907,0.827,4.948,1.605,5.75c1.378,1.422,2.812,1.638,4.625,1.625
		c1.934-0.014,2.829-6.513,0.894-6.499c-1.487,0.011-2.691,0.207-3.689-1.061c-0.584-0.742-1.009-1.538-1.403-2.359
		c0.762-1.351,1.426-3.054,1.957-5.019c1.829,0.379,3.035,2.819,4.866,3.188c1.889,0.38,3.314-4.564,1.418-4.946
		c-1.879-0.378-3.753-0.776-5.63-1.165c0.106-0.577,0.197-1.176,0.281-1.782c3.497,1.635,7.519,2.57,11.802,2.57
		c0.772,0,1.534-0.034,2.287-0.093c-0.061-0.044-0.121-0.091-0.181-0.136c2.256-0.149,4.516-0.576,6.182-1.673
		c2.666-1.757,0.354-6.196-2.344-4.418c-1.901,1.253-4.13,1.423-6.344,1.385c0,0,0.467-0.996,1.044-2.224
		c0.576-1.228-0.309-2.103-1.981-1.998c-0.618,0.039-1.242,0.071-1.798,0.09c-0.526-2.93-0.284-6.147,0.868-9.288
		c1.342-3.659,3.691-6.601,6.508-8.526l0.707,1.65c0.87,2.031,2.56,2.18,3.773,0.334l2.95-4.487c1.497-0.042,3,0.174,4.457,0.708
		c0.041,0.015,0.079,0.037,0.12,0.052c-0.052,0.52-0.111,1.112-0.175,1.752c-0.198,1.984,1.153,2.949,3.018,2.155l1.775-0.755
		c1.69,1.845,2.852,4.21,3.398,6.827c0.068-0.628,0.108-1.262,0.108-1.905C61.743,12.656,50.831,3.456,37.371,3.456z M27.441,22.998
		c-1.508,0-2.836-0.775-3.625-1.952c-0.199-0.524-0.41-1.013-0.63-1.477c-0.077-0.33-0.128-0.671-0.128-1.025
		c0-2.46,1.962-4.455,4.383-4.455s4.383,1.994,4.383,4.455C31.824,21.004,29.862,22.998,27.441,22.998z"/>
</g>
</svg>
